<svg width="430" height="273" viewBox="0 0 430 273" fill="none" xmlns="http://www.w3.org/2000/svg">
<path d="M423.712 51.6517C423.985 52.2585 424.249 52.8705 424.503 53.4878L424.041 53.6781C424.167 53.9843 424.29 54.2917 424.411 54.6004C424.533 54.9091 424.651 55.2185 424.767 55.5286L425.235 55.3536C425.469 55.979 425.692 56.6071 425.904 57.2378L425.43 57.3973C425.641 58.0229 425.841 58.6511 426.031 59.282L426.509 59.1381C426.701 59.7753 426.882 60.4151 427.052 61.0575L426.569 61.1856C426.738 61.8239 426.897 62.4647 427.045 63.1079L427.532 62.9956C427.682 63.6441 427.821 64.2951 427.949 64.9485L427.459 65.0451C427.586 65.6918 427.703 66.3409 427.81 66.9924L428.303 66.9116C428.411 67.5669 428.508 68.2246 428.595 68.8845L428.099 68.9497C428.185 69.6045 428.261 70.2614 428.327 70.9206L428.825 70.8708C428.891 71.5312 428.947 72.1938 428.993 72.8584L428.494 72.893C428.539 73.549 428.575 74.2072 428.601 74.8673L429.101 74.8476C429.127 75.5127 429.143 76.1797 429.15 76.8487L428.65 76.8536C428.656 77.5121 428.653 78.1725 428.641 78.8348L429.141 78.8442C429.128 79.5053 429.106 80.1683 429.075 80.8329L428.576 80.8095C428.545 81.4695 428.505 82.1313 428.455 82.7947L428.954 82.8318C428.905 83.4938 428.847 84.1574 428.779 84.8225L428.282 84.7722C428.216 85.4243 428.141 86.078 428.058 86.7332L428.554 86.7963C428.47 87.4557 428.377 88.1166 428.276 88.7788L427.782 88.7032C427.682 89.3569 427.573 90.0121 427.456 90.6686L427.948 90.7563C427.833 91.4043 427.709 92.0534 427.577 92.7038L427.087 92.6045C426.956 93.251 426.817 93.8988 426.67 94.5477L427.158 94.6583C427.01 95.3105 426.854 95.9638 426.69 96.6182L426.205 96.4967C426.046 97.1296 425.88 97.7636 425.707 98.3986L426.189 98.5305C426.014 99.1689 425.832 99.8082 425.643 100.448L425.163 100.306C424.975 100.943 424.778 101.581 424.575 102.22L425.051 102.372C424.851 103 424.644 103.63 424.429 104.26L423.956 104.099C423.744 104.72 423.526 105.342 423.301 105.965L423.771 106.135C423.544 106.761 423.311 107.387 423.071 108.014L422.604 107.836C422.367 108.455 422.123 109.074 421.873 109.695L422.336 109.882C422.09 110.491 421.838 111.1 421.579 111.71L421.119 111.515C420.861 112.123 420.597 112.73 420.327 113.339L420.784 113.542C420.513 114.153 420.235 114.764 419.951 115.376L419.497 115.166C419.221 115.761 418.938 116.357 418.65 116.953L419.1 117.171C418.813 117.764 418.52 118.358 418.221 118.952L417.775 118.728C417.477 119.32 417.174 119.912 416.865 120.504L417.308 120.736C416.998 121.329 416.683 121.923 416.362 122.516L415.922 122.278C415.611 122.853 415.295 123.428 414.974 124.003L415.41 124.247C415.087 124.824 414.759 125.401 414.426 125.978L413.993 125.728C413.661 126.303 413.323 126.879 412.981 127.455L413.41 127.71C413.069 128.283 412.723 128.855 412.372 129.427L411.946 129.166C411.604 129.724 411.256 130.282 410.904 130.84L411.327 131.107C410.974 131.667 410.615 132.227 410.252 132.787L409.833 132.515C409.47 133.073 409.103 133.631 408.732 134.19L409.148 134.467C408.779 135.02 408.406 135.573 408.029 136.126L407.616 135.843C407.246 136.385 406.871 136.926 406.492 137.467L406.902 137.754C406.522 138.297 406.137 138.839 405.748 139.382L405.342 139.091C404.954 139.631 404.562 140.172 404.165 140.713L404.568 141.009C404.174 141.545 403.777 142.081 403.374 142.616L402.975 142.316C402.581 142.84 402.183 143.365 401.781 143.889L402.177 144.193C401.774 144.719 401.367 145.244 400.955 145.769L400.562 145.461C400.151 145.985 399.737 146.508 399.318 147.032L399.708 147.344C399.292 147.865 398.871 148.385 398.447 148.905L398.059 148.589C397.645 149.097 397.226 149.604 396.804 150.112L397.188 150.432C396.765 150.94 396.337 151.448 395.906 151.956L395.525 151.633C395.095 152.14 394.661 152.646 394.224 153.152L394.602 153.479C394.163 153.986 393.721 154.493 393.275 154.999L392.9 154.669C392.467 155.16 392.03 155.652 391.59 156.142L391.963 156.476C391.522 156.968 391.077 157.46 390.629 157.951L390.26 157.614C389.812 158.104 389.362 158.594 388.908 159.083L389.274 159.423C388.819 159.913 388.36 160.403 387.898 160.892L387.535 160.549C387.081 161.029 386.624 161.509 386.164 161.989L386.525 162.335C386.068 162.81 385.609 163.286 385.145 163.76L384.788 163.411C384.325 163.885 383.86 164.358 383.391 164.831L383.746 165.183C383.277 165.657 382.804 166.13 382.328 166.603L381.976 166.248C381.502 166.718 381.025 167.188 380.546 167.657L380.895 168.014C380.425 168.474 379.951 168.933 379.475 169.392L379.128 169.032C378.653 169.49 378.174 169.947 377.693 170.404L378.037 170.767C377.554 171.224 377.069 171.681 376.581 172.138L376.239 171.773C375.752 172.228 375.261 172.684 374.768 173.138L375.106 173.506C374.618 173.955 374.127 174.404 373.634 174.853L373.298 174.483C372.81 174.925 372.32 175.367 371.827 175.808L372.161 176.181C371.667 176.623 371.17 177.064 370.671 177.505L370.34 177.13C369.841 177.57 369.34 178.01 368.836 178.449L369.164 178.826C368.659 179.265 368.152 179.704 367.641 180.143L367.316 179.763C366.815 180.193 366.313 180.621 365.807 181.05L366.13 181.431C365.626 181.858 365.12 182.284 364.611 182.71L364.29 182.326C363.782 182.751 363.271 183.176 362.757 183.599L363.075 183.985C362.561 184.409 362.044 184.833 361.525 185.256L361.209 184.868C360.69 185.29 360.169 185.712 359.645 186.132L359.958 186.522C359.445 186.935 358.929 187.347 358.411 187.758L358.1 187.366C357.583 187.776 357.063 188.186 356.541 188.595L356.849 188.988C356.327 189.398 355.801 189.807 355.274 190.215L354.968 189.819C354.441 190.226 353.912 190.633 353.38 191.039L353.684 191.436C353.152 191.843 352.617 192.248 352.08 192.653L351.779 192.254C351.254 192.65 350.727 193.045 350.197 193.439L350.495 193.84C349.965 194.236 349.432 194.63 348.897 195.024L348.601 194.621C348.066 195.014 347.53 195.406 346.991 195.798L347.285 196.202C346.745 196.594 346.204 196.985 345.66 197.376L345.368 196.97C345.117 197.15 344.866 197.33 344.615 197.509C344.321 197.719 344.027 197.928 343.732 198.137L344.021 198.545C343.484 198.926 342.944 199.307 342.402 199.686L342.115 199.277C341.574 199.656 341.031 200.034 340.485 200.412L340.77 200.823C340.224 201.201 339.676 201.578 339.126 201.954L338.843 201.542C338.294 201.918 337.743 202.293 337.189 202.667L337.469 203.081C336.915 203.456 336.358 203.83 335.8 204.203L335.522 203.787C334.973 204.153 334.423 204.519 333.87 204.884L334.145 205.301C333.593 205.666 333.039 206.029 332.483 206.392L332.21 205.973C331.655 206.336 331.098 206.697 330.539 207.057L330.81 207.478C330.25 207.839 329.688 208.199 329.125 208.558L328.856 208.136C328.293 208.495 327.728 208.853 327.161 209.21L327.428 209.633C326.867 209.986 326.303 210.339 325.738 210.691L325.474 210.267C324.913 210.615 324.351 210.964 323.787 211.311L324.049 211.737C323.484 212.084 322.917 212.431 322.349 212.777L322.089 212.35C321.521 212.695 320.952 213.039 320.38 213.383L320.638 213.811C320.066 214.155 319.492 214.499 318.916 214.841L318.661 214.411C318.089 214.751 317.514 215.09 316.939 215.429L317.192 215.86C316.622 216.194 316.051 216.528 315.478 216.861L315.227 216.428C314.654 216.761 314.08 217.092 313.505 217.423L313.754 217.856C313.177 218.187 312.599 218.517 312.019 218.846L311.773 218.411C311.193 218.74 310.613 219.068 310.03 219.394L310.275 219.831C309.692 220.158 309.107 220.484 308.52 220.809L308.278 220.372C307.7 220.692 307.12 221.012 306.539 221.33L306.779 221.769C306.199 222.087 305.617 222.404 305.033 222.72L304.795 222.281C304.212 222.596 303.627 222.911 303.041 223.225L303.277 223.666C302.69 223.98 302.102 224.293 301.512 224.606L301.278 224.164C300.689 224.476 300.098 224.787 299.505 225.097L299.737 225.54C299.147 225.848 298.555 226.156 297.962 226.463L297.732 226.019C297.146 226.322 296.558 226.624 295.968 226.926L296.195 227.371C295.605 227.673 295.013 227.973 294.42 228.273L294.194 227.827C293.602 228.126 293.008 228.425 292.412 228.722L292.635 229.169C292.039 229.467 291.441 229.764 290.842 230.059L290.621 229.611C290.022 229.906 289.422 230.2 288.821 230.494L289.04 230.943C288.444 231.233 287.847 231.523 287.248 231.811L287.031 231.361C286.435 231.648 285.838 231.934 285.239 232.219L285.454 232.67C284.855 232.956 284.254 233.24 283.652 233.523L283.439 233.071C282.838 233.354 282.235 233.635 281.631 233.916L281.842 234.37C281.237 234.651 280.63 234.931 280.023 235.21L279.814 234.755C279.208 235.034 278.6 235.311 277.991 235.587L278.198 236.043C277.596 236.316 276.992 236.588 276.387 236.859L276.183 236.403C275.578 236.674 274.973 236.943 274.366 237.212L274.569 237.669C273.961 237.938 273.352 238.206 272.742 238.473L272.542 238.015C271.933 238.281 271.322 238.546 270.71 238.811L270.908 239.27C270.296 239.534 269.682 239.798 269.066 240.06L268.87 239.6C268.258 239.861 267.645 240.121 267.03 240.38L267.225 240.841C266.615 241.098 266.003 241.354 265.391 241.608L265.199 241.147C264.587 241.401 263.974 241.654 263.36 241.907L263.55 242.369C262.935 242.622 262.319 242.873 261.702 243.123L261.514 242.66C260.897 242.91 260.279 243.159 259.66 243.407L259.846 243.871C259.226 244.119 258.605 244.366 257.983 244.612L257.8 244.147C257.489 244.269 257.178 244.392 256.867 244.514C256.555 244.636 256.244 244.758 255.933 244.879L256.115 245.345C255.491 245.588 254.868 245.829 254.245 246.069L254.066 245.602C253.444 245.842 252.821 246.08 252.199 246.316L252.377 246.783C251.754 247.02 251.131 247.254 250.509 247.488L250.334 247.019C249.712 247.252 249.09 247.484 248.469 247.713L248.642 248.182C248.02 248.412 247.398 248.64 246.776 248.867L246.605 248.397C245.978 248.625 245.352 248.852 244.725 249.077L244.895 249.547C244.265 249.774 243.636 249.998 243.007 250.221L242.84 249.749C242.212 249.972 241.583 250.193 240.956 250.412L241.12 250.884C240.492 251.104 239.863 251.321 239.235 251.537L239.072 251.065C238.445 251.28 237.818 251.495 237.191 251.707L237.351 252.181C236.723 252.393 236.096 252.604 235.469 252.814L235.31 252.34C234.676 252.551 234.042 252.761 233.408 252.97L233.564 253.445C232.929 253.653 232.294 253.861 231.659 254.066L231.506 253.59C230.872 253.795 230.238 253.999 229.605 254.2L229.757 254.677C229.123 254.879 228.489 255.079 227.855 255.278L227.706 254.8C227.073 254.999 226.441 255.195 225.809 255.39L225.956 255.868C225.321 256.064 224.686 256.258 224.052 256.45L223.907 255.972C223.588 256.069 223.268 256.165 222.949 256.261C222.628 256.358 222.308 256.454 221.987 256.549L222.13 257.028C221.49 257.219 220.85 257.408 220.21 257.596L220.069 257.116C219.431 257.303 218.792 257.489 218.154 257.672L218.292 258.153C217.654 258.337 217.015 258.519 216.377 258.699L216.241 258.218C215.604 258.398 214.967 258.577 214.331 258.753L214.465 259.235C213.821 259.414 213.178 259.591 212.535 259.766L212.404 259.283C211.759 259.459 211.114 259.633 210.47 259.805L210.599 260.289C209.954 260.461 209.31 260.632 208.666 260.8L208.539 260.317C207.896 260.485 207.253 260.652 206.611 260.817L206.736 261.301C206.093 261.467 205.45 261.63 204.808 261.792L204.686 261.307C204.043 261.469 203.401 261.629 202.76 261.787L202.879 262.272C202.228 262.433 201.578 262.592 200.928 262.749L200.81 262.263C200.161 262.419 199.513 262.574 198.865 262.727L198.979 263.214C198.331 263.367 197.682 263.518 197.035 263.668L196.922 263.181C196.275 263.33 195.629 263.478 194.984 263.623L195.094 264.111C194.447 264.257 193.801 264.401 193.156 264.543L193.049 264.055C192.396 264.198 191.745 264.34 191.094 264.48L191.199 264.969C190.544 265.11 189.89 265.249 189.237 265.386L189.134 264.896C188.482 265.033 187.83 265.168 187.179 265.301L187.279 265.791C186.627 265.924 185.976 266.055 185.325 266.185L185.228 265.695C184.578 265.824 183.929 265.951 183.281 266.077L183.376 266.567C182.722 266.694 182.07 266.819 181.417 266.941L181.325 266.45C180.667 266.574 180.009 266.696 179.353 266.815L179.443 267.307C178.785 267.427 178.128 267.545 177.472 267.662L177.385 267.169C176.73 267.285 176.076 267.399 175.423 267.512L175.507 268.004C174.853 268.117 174.2 268.227 173.547 268.335L173.465 267.842C172.812 267.951 172.159 268.057 171.508 268.162L171.587 268.655C170.924 268.762 170.262 268.866 169.601 268.969L169.524 268.474C168.864 268.577 168.204 268.677 167.546 268.775L167.62 269.27C166.961 269.368 166.302 269.464 165.645 269.559L165.574 269.064C164.917 269.158 164.262 269.25 163.607 269.34L163.676 269.836C163.02 269.926 162.366 270.014 161.712 270.1L161.647 269.605C160.981 269.692 160.317 269.778 159.653 269.862L159.716 270.358C159.052 270.442 158.388 270.523 157.726 270.603L157.667 270.107C157.005 270.186 156.345 270.263 155.686 270.339L155.743 270.836C155.083 270.911 154.424 270.984 153.766 271.056L153.713 270.558C153.056 270.63 152.4 270.699 151.746 270.766L151.797 271.263C151.128 271.332 150.461 271.398 149.794 271.462L149.746 270.964C149.081 271.028 148.416 271.09 147.753 271.15L147.798 271.648C147.133 271.708 146.47 271.765 145.808 271.821L145.767 271.323C145.106 271.378 144.446 271.431 143.788 271.482L143.827 271.981C143.167 272.032 142.509 272.081 141.852 272.128L141.816 271.629C141.146 271.677 140.477 271.723 139.81 271.766L139.842 272.265C139.174 272.308 138.507 272.349 137.841 272.388L137.812 271.889C137.148 271.928 136.484 271.964 135.823 271.999L135.849 272.498C135.186 272.532 134.525 272.564 133.865 272.594L133.842 272.095C133.18 272.125 132.52 272.152 131.861 272.178L131.881 272.677C131.208 272.703 130.538 272.727 129.869 272.748L129.853 272.248C129.185 272.27 128.518 272.288 127.854 272.305L127.866 272.805C127.2 272.821 126.536 272.835 125.873 272.847L125.864 272.347C125.203 272.359 124.543 272.369 123.885 272.376L123.89 272.876C123.223 272.883 122.558 272.888 121.894 272.89L121.893 272.39C121.222 272.393 120.552 272.393 119.885 272.39L119.883 272.89C119.215 272.888 118.548 272.883 117.883 272.876L117.889 272.376C117.225 272.368 116.563 272.359 115.903 272.346L115.894 272.846C115.233 272.834 114.573 272.819 113.916 272.802L113.929 272.302C113.258 272.285 112.589 272.265 111.922 272.242L111.905 272.742C111.235 272.719 110.566 272.694 109.9 272.666L109.921 272.167C109.256 272.139 108.592 272.109 107.931 272.076L107.907 272.575C107.244 272.542 106.584 272.507 105.926 272.469L105.955 271.969C105.291 271.931 104.63 271.89 103.971 271.846L103.938 272.345C103.266 272.301 102.597 272.254 101.93 272.204L101.967 271.705C101.301 271.656 100.638 271.603 99.977 271.548L99.9355 272.046C99.2729 271.991 98.6127 271.933 97.9548 271.873L98.0007 271.375C97.3442 271.314 96.6901 271.251 96.0384 271.186L95.9882 271.683C95.3168 271.615 94.6479 271.545 93.9815 271.471L94.0363 270.974C93.3713 270.901 92.7088 270.825 92.0489 270.746L91.9895 271.242C91.328 271.163 90.6692 271.081 90.0129 270.996L90.077 270.5C89.4222 270.416 88.7702 270.328 88.1207 270.238L88.0519 270.733C87.3868 270.641 86.7245 270.546 86.065 270.447L86.1387 269.953C85.4759 269.854 84.8159 269.752 84.1587 269.647L84.08 270.141C83.4212 270.036 82.7653 269.928 82.1122 269.817L82.196 269.324C81.5447 269.214 80.8962 269.1 80.2508 268.983L80.1619 269.475C79.5029 269.356 78.847 269.234 78.1941 269.109L78.2883 268.618C77.6296 268.492 76.974 268.362 76.3216 268.229L76.2219 268.719C75.5677 268.586 74.9167 268.45 74.269 268.311L74.3741 267.822C73.7282 267.683 73.0856 267.541 72.4462 267.396L72.3355 267.883C71.6825 267.735 71.0329 267.584 70.3868 267.429L70.5033 266.942C69.851 266.786 69.2022 266.627 68.557 266.464L68.4346 266.948C67.7875 266.785 67.1439 266.618 66.504 266.448L66.6324 265.965C65.9945 265.795 65.3603 265.622 64.7297 265.446L64.5951 265.928C63.9485 265.747 63.3056 265.563 62.6666 265.375L62.8075 264.896C62.1647 264.707 61.5258 264.515 60.891 264.319L60.7436 264.797C60.1066 264.6 59.4736 264.4 58.8447 264.197L58.9986 263.721C58.3719 263.518 57.7492 263.312 57.1307 263.102L56.9701 263.576C56.3308 263.359 55.6958 263.138 55.0652 262.914L55.2328 262.443C54.6031 262.219 53.9779 261.991 53.3572 261.76L53.1826 262.228C52.5595 261.996 51.9409 261.76 51.3268 261.52L51.5087 261.054C50.8916 260.813 50.2792 260.569 49.6715 260.32L49.4823 260.783C48.8579 260.528 48.2384 260.269 47.6239 260.005L47.8208 259.546C47.2088 259.284 46.6018 259.017 45.9999 258.747L45.7953 259.204C45.1907 258.933 44.5912 258.657 43.9967 258.378L44.2092 257.926C43.6036 257.641 43.0032 257.353 42.4083 257.06L42.1877 257.509C41.5851 257.213 40.988 256.912 40.3964 256.608L40.6253 256.163C40.0365 255.86 39.4533 255.552 38.8757 255.241L38.6383 255.681C38.0524 255.365 37.4722 255.045 36.8978 254.72L37.1438 254.285C36.5602 253.955 35.9826 253.621 35.4111 253.282L35.1562 253.712C34.5818 253.372 34.0134 253.027 33.4512 252.678L33.715 252.253C33.1559 251.906 32.6028 251.554 32.0561 251.198L31.7832 251.617C31.2179 251.249 30.6592 250.876 30.1071 250.499L30.3894 250.086C29.8401 249.71 29.2975 249.33 28.7617 248.945L28.4701 249.351C27.9311 248.964 27.3989 248.573 26.8735 248.176L27.1747 247.777C26.6424 247.375 26.1171 246.969 25.5991 246.558L25.2883 246.949C24.7636 246.533 24.2462 246.112 23.7361 245.685L24.0568 245.302C23.55 244.878 23.0506 244.45 22.5586 244.016L22.2282 244.392C21.7264 243.95 21.2324 243.503 20.746 243.051L21.0863 242.685C20.5989 242.232 20.1193 241.774 19.6477 241.312L19.2975 241.669C18.8227 241.203 18.3557 240.731 17.8969 240.255L18.2569 239.908C17.7973 239.431 17.3459 238.949 16.9027 238.462L16.5329 238.799C16.0827 238.304 15.6409 237.804 15.2077 237.299L15.5873 236.973C15.1573 236.472 14.7358 235.965 14.3229 235.453L13.9337 235.767C13.5154 235.248 13.1058 234.725 12.7051 234.196L13.1036 233.894C12.7036 233.366 12.3125 232.832 11.9303 232.294L11.5225 232.583C11.1373 232.04 10.7611 231.492 10.394 230.939L10.8107 230.662C10.4458 230.112 10.09 229.557 9.74342 228.996L9.31814 229.259C8.96795 228.693 8.62705 228.121 8.29554 227.544L8.7291 227.295C8.40028 226.722 8.08078 226.145 7.7707 225.562L7.32926 225.797C7.01718 225.21 6.71454 224.618 6.42146 224.02L6.87034 223.8C6.5802 223.209 6.29949 222.612 6.02832 222.01L5.57247 222.216C5.29905 221.609 5.03525 220.997 4.78116 220.38L5.24352 220.189C5.11752 219.883 4.99393 219.576 4.87275 219.267C4.75158 218.958 4.63307 218.649 4.51722 218.339L4.04884 218.514C3.8152 217.889 3.59226 217.261 3.37994 216.63L3.85382 216.47C3.64325 215.845 3.44322 215.216 3.25367 214.586L2.77482 214.729C2.58335 214.092 2.40249 213.452 2.23216 212.81L2.71546 212.682C2.54623 212.044 2.38748 211.403 2.23914 210.76L1.75193 210.872C1.60238 210.223 1.46335 209.572 1.33475 208.919L1.82534 208.823C1.69806 208.176 1.58108 207.527 1.47435 206.875L0.98093 206.956C0.87356 206.301 0.776479 205.643 0.689624 204.983L1.18535 204.918C1.09917 204.263 1.02314 203.606 0.957181 202.947L0.459663 202.997C0.393579 202.336 0.337537 201.674 0.291471 201.009L0.790272 200.975C0.744802 200.319 0.70912 199.66 0.683174 199L0.183559 199.02C0.157419 198.355 0.141084 197.688 0.134495 197.019L0.634471 197.014C0.627984 196.355 0.631012 195.695 0.643492 195.033L0.143578 195.023C0.156038 194.362 0.177855 193.699 0.208966 193.035L0.708421 193.058C0.739316 192.398 0.779444 191.736 0.82875 191.073L0.330125 191.036C0.379325 190.374 0.437599 189.71 0.504886 189.045L1.00234 189.095C1.06832 188.443 1.14302 187.79 1.22641 187.134L0.730407 187.071C0.814326 186.412 0.906968 185.751 1.00828 185.089L1.50253 185.164C1.60255 184.511 1.71109 183.855 1.82808 183.199L1.33584 183.111C1.45131 182.463 1.57495 181.814 1.70673 181.164L2.19677 181.263C2.32778 180.617 2.46688 179.969 2.61402 179.32L2.12639 179.209C2.27428 178.557 2.43023 177.904 2.5942 177.249L3.0792 177.371C3.2378 176.738 3.40394 176.104 3.57759 175.469L3.0953 175.337C3.26988 174.699 3.452 174.059 3.64159 173.419L4.12101 173.561C4.30963 172.924 4.50571 172.286 4.70921 171.648L4.2328 171.496C4.43309 170.867 4.6405 170.238 4.855 169.608L5.32833 169.769C5.53981 169.148 5.75823 168.525 5.98354 167.903L5.51336 167.733C5.73974 167.107 5.97304 166.48 6.2132 165.853L6.68013 166.032C6.91724 165.413 7.16109 164.793 7.41164 164.173L6.94802 163.986C7.19394 163.377 7.44627 162.767 7.70497 162.157L8.16528 162.352C8.42287 161.745 8.68682 161.137 8.9571 160.529L8.50015 160.326C8.77156 159.715 9.0493 159.103 9.33333 158.492L9.78685 158.702C10.0633 158.107 10.3458 157.511 10.6342 156.914L10.1841 156.697C10.4711 156.103 10.764 155.509 11.0627 154.915L11.5094 155.14C11.807 154.548 12.1104 153.956 12.4196 153.363L11.9763 153.132C12.286 152.539 12.6014 151.945 12.9225 151.351L13.3623 151.589C13.673 151.015 13.9891 150.44 14.3106 149.865L13.8742 149.621C14.1968 149.044 14.5248 148.467 14.8581 147.889L15.2911 148.139C15.6233 147.564 15.9608 146.989 16.3036 146.413L15.874 146.157C16.2148 145.585 16.5608 145.013 16.9119 144.44L17.3381 144.702C17.6805 144.144 18.0278 143.586 18.3801 143.028L17.9573 142.761C18.3106 142.201 18.669 141.641 19.0322 141.081L19.4517 141.353C19.8137 140.795 20.1807 140.236 20.5526 139.678L20.1364 139.401C20.5048 138.848 20.8779 138.295 21.2556 137.742L21.6685 138.024C22.0384 137.483 22.4128 136.942 22.7918 136.4L22.3822 136.114C22.7623 135.571 23.1468 135.028 23.5359 134.486L23.9422 134.777C24.3302 134.236 24.7227 133.695 25.1196 133.154L24.7165 132.859C25.1099 132.323 25.5076 131.787 25.9097 131.251L26.3095 131.552C26.7033 131.027 27.1013 130.503 27.5035 129.979L27.1068 129.674C27.51 129.149 27.9174 128.623 28.3289 128.098L28.7224 128.407C29.1329 127.883 29.5474 127.359 29.9661 126.836L29.5757 126.524C29.9923 126.003 30.4129 125.483 30.8376 124.963L31.2249 125.279C31.6395 124.771 32.0581 124.263 32.4804 123.756L32.0962 123.436C32.5196 122.927 32.9468 122.419 33.3778 121.911L33.759 122.235C34.189 121.728 34.6229 121.222 35.0605 120.715L34.6823 120.388C35.1208 119.881 35.5631 119.375 36.0091 118.868L36.3843 119.199C36.8173 118.707 37.2538 118.216 37.6939 117.725L37.3216 117.391C37.7626 116.899 38.2072 116.408 38.6553 115.917L39.0247 116.254C39.4718 115.764 39.9225 115.274 40.3766 114.785L40.0102 114.445C40.4653 113.954 40.9239 113.465 41.386 112.975L41.7495 113.318C42.203 112.838 42.6598 112.358 43.1199 111.879L42.7592 111.533C43.2158 111.057 43.6756 110.582 44.1388 110.107L44.4966 110.456C44.9588 109.983 45.4243 109.509 45.8929 109.037L45.5379 108.685C46.0075 108.211 46.4803 107.738 46.9564 107.265L47.3087 107.62C47.7821 107.15 48.2588 106.68 48.7386 106.211L48.389 105.853C48.8594 105.394 49.3327 104.934 49.8091 104.476L50.156 104.836C50.6315 104.378 51.11 103.92 51.5915 103.464L51.2474 103.101C51.7298 102.643 52.2152 102.186 52.7036 101.73L53.045 102.095C53.5326 101.639 54.0231 101.184 54.5165 100.729L54.1778 100.362C54.6658 99.9122 55.1568 99.4632 55.6506 99.0149L55.9867 99.385C56.474 98.9426 56.9642 98.5007 57.4571 98.0594L57.1236 97.6868C57.6174 97.2448 58.114 96.8033 58.6134 96.3625L58.9443 96.7373C59.4428 96.2972 59.9441 95.8577 60.4482 95.4189L60.1199 95.0418C60.6248 94.6022 61.1324 94.1633 61.6429 93.725L61.9686 94.1044C62.4687 93.675 62.9715 93.2462 63.4769 92.818L63.1537 92.4365C63.6577 92.0096 64.1643 91.5832 64.6735 91.1576L64.9942 91.5412C65.5025 91.1163 66.0135 90.692 66.527 90.2684L66.2088 89.8827C66.7232 89.4584 67.2401 89.0348 67.7596 88.6119L68.0753 88.9996C68.594 88.5774 69.1152 88.1559 69.6389 87.7351L69.3258 87.3453C69.8392 86.9328 70.3551 86.521 70.8734 86.1099L71.1841 86.5016C71.7013 86.0913 72.221 85.6817 72.743 85.2729L72.4347 84.8792C72.9576 84.4697 73.4829 84.061 74.0105 83.6529L74.3164 84.0485C74.8433 83.6411 75.3725 83.2344 75.9041 82.8285L75.6007 82.4311C76.1327 82.0249 76.667 81.6195 77.2038 81.2148L77.5048 81.614C78.0301 81.218 78.5576 80.8227 79.0874 80.4281L78.7888 80.0271C79.3193 79.6319 79.8522 79.2375 80.3872 78.8439L80.6835 79.2467C81.2178 78.8537 81.7543 78.4614 82.2931 78.0699L81.9991 77.6654C82.5387 77.2734 83.0804 76.8821 83.6244 76.4916L83.9159 76.8978C84.4591 76.5079 85.0045 76.1188 85.5521 75.7305L85.2629 75.3227C85.8006 74.9414 86.3404 74.5609 86.8823 74.1812L87.1692 74.5907C87.7102 74.2116 88.2534 73.8333 88.7987 73.4558L88.5141 73.0447C89.0601 72.6667 89.6082 72.2895 90.1584 71.9131L90.4407 72.3258C90.9901 71.95 91.5416 71.5749 92.0951 71.2008L91.8151 70.7865C92.3694 70.4118 92.9258 70.038 93.4842 69.665L93.7619 70.0808C94.3108 69.7142 94.8616 69.3484 95.4144 68.9835L95.139 68.5662C95.691 68.2018 96.2449 67.8382 96.8008 67.4755L97.074 67.8943C97.6292 67.5321 98.1863 67.1707 98.7453 66.8102L98.4744 66.39C99.0342 66.0291 99.5959 65.669 100.16 65.3097L100.428 65.7314C100.991 65.3727 101.556 65.0148 102.123 64.6578L101.856 64.2348C102.418 63.8812 102.981 63.5284 103.546 63.1766L103.81 63.6011C104.371 63.2521 104.933 62.904 105.497 62.5569L105.235 62.131C105.8 61.7834 106.367 61.4367 106.935 61.0909L107.195 61.518C107.763 61.1726 108.332 60.8282 108.904 60.4846L108.646 60.0561C109.218 59.7121 109.792 59.369 110.368 59.0269L110.623 59.4567C111.196 59.1166 111.77 58.7773 112.346 58.439L112.092 58.0079C112.662 57.6733 113.233 57.3396 113.806 57.0068L114.057 57.4392C114.63 57.1068 115.204 56.7753 115.779 56.4448L115.531 56.0112C116.107 55.6803 116.685 55.3503 117.265 55.0213L117.512 55.4561C118.091 55.1275 118.672 54.7999 119.254 54.4732L119.009 54.0371C119.593 53.71 120.177 53.3838 120.764 53.0587L121.006 53.496C121.584 53.1755 122.164 52.856 122.745 52.5375L122.505 52.099C123.085 51.7809 123.667 51.4637 124.251 51.1474L124.489 51.5871C125.072 51.2712 125.657 50.9564 126.243 50.6425L126.007 50.2017C126.594 49.8874 127.182 49.5741 127.772 49.2618L128.006 49.7037C128.596 49.3918 129.186 49.0809 129.779 48.771L129.547 48.3279C130.137 48.0192 130.729 47.7115 131.322 47.4047L131.552 47.8489C132.138 47.5455 132.727 47.2432 133.316 46.9418L133.089 46.4966C133.679 46.1948 134.271 45.8941 134.864 45.5944L135.09 46.0407C135.682 45.7414 136.277 45.443 136.872 45.1457L136.649 44.6983C137.245 44.4007 137.843 44.104 138.442 43.8084L138.663 44.2568C139.262 43.9615 139.862 43.6673 140.463 43.3741L140.244 42.9246C140.84 42.6342 141.437 42.3447 142.036 42.0563L142.253 42.5067C142.849 42.2197 143.446 41.9337 144.045 41.6487L143.83 41.1972C144.429 40.9119 145.03 40.6276 145.632 40.3444L145.845 40.7968C146.446 40.5139 147.049 40.2321 147.653 39.9513L147.443 39.4979C148.047 39.2168 148.654 38.9367 149.261 38.6577L149.47 39.1121C150.076 38.8337 150.684 38.5564 151.293 38.2801L151.086 37.8248C151.689 37.5516 152.292 37.2795 152.897 37.0084L153.102 37.4647C153.706 37.1939 154.311 36.9243 154.918 36.6556L154.716 36.1984C155.323 35.9295 155.932 35.6617 156.542 35.3949L156.742 35.853C157.352 35.5866 157.962 35.3212 158.574 35.0569L158.376 34.5979C158.989 34.3333 159.603 34.0698 160.218 33.8075L160.414 34.2674C161.026 34.0064 161.639 33.7464 162.254 33.4876L162.06 33.0268C162.67 32.7699 163.281 32.5141 163.893 32.2593L164.085 32.721C164.697 32.4666 165.31 32.2132 165.924 31.961L165.734 31.4985C166.349 31.2459 166.965 30.9945 167.583 30.7443L167.77 31.2076C168.387 30.9576 169.005 30.7087 169.624 30.461L169.438 29.9968C170.058 29.7487 170.679 29.5018 171.301 29.256L171.484 29.7211C171.795 29.5983 172.106 29.4758 172.417 29.3537C172.729 29.2315 173.04 29.1097 173.351 28.9884L173.17 28.5225C173.793 28.2796 174.416 28.0382 175.039 27.7985L175.218 28.2652C175.841 28.0257 176.463 27.7879 177.085 27.5518L176.907 27.0843C177.53 26.8479 178.153 26.6131 178.775 26.38L178.951 26.8482C179.572 26.6153 180.194 26.3841 180.816 26.1545L180.642 25.6855C181.264 25.4556 181.887 25.2273 182.508 25.0007L182.68 25.4705C183.306 25.2423 183.933 25.0156 184.559 24.7907L184.39 24.3201C185.019 24.094 185.648 23.8695 186.277 23.6468L186.444 24.1181C187.073 23.8956 187.701 23.6747 188.329 23.4555L188.164 22.9835C188.792 22.7641 189.421 22.5463 190.049 22.3302L190.212 22.803C190.839 22.5872 191.467 22.373 192.094 22.1605L191.933 21.687C192.561 21.4743 193.188 21.2632 193.816 21.0538L193.974 21.528C194.608 21.3163 195.242 21.1062 195.876 20.8979L195.72 20.4229C196.355 20.2141 196.99 20.007 197.625 19.8017L197.779 20.2774C198.412 20.0723 199.046 19.8688 199.679 19.6671L199.528 19.1907C200.162 18.9888 200.795 18.7885 201.429 18.59L201.578 19.0671C202.211 18.8688 202.843 18.6722 203.475 18.4774L203.328 17.9996C203.963 17.8037 204.598 17.6096 205.232 17.4172L205.377 17.8957C206.018 17.7015 206.657 17.5091 207.297 17.3184L207.154 16.8393C207.795 16.6484 208.434 16.4592 209.074 16.2718L209.215 16.7516C209.854 16.5645 210.492 16.379 211.13 16.1953L210.992 15.7148C211.631 15.5309 212.269 15.3488 212.907 15.1684L213.043 15.6495C213.68 15.4693 214.317 15.2909 214.953 15.1142L214.82 14.6324C215.463 14.4537 216.106 14.2768 216.749 14.1017L216.88 14.5841C217.525 14.4083 218.17 14.2343 218.814 14.0621L218.685 13.5791C219.33 13.4067 219.974 13.2361 220.618 13.0672L220.745 13.5509C221.388 13.3823 222.031 13.2155 222.673 13.0504L222.549 12.5662C223.192 12.4009 223.834 12.2375 224.476 12.0758L224.598 12.5607C225.241 12.3988 225.883 12.2388 226.525 12.0806L226.405 11.5951C227.056 11.4345 227.707 11.2758 228.357 11.1189L228.474 11.6049C229.123 11.4482 229.772 11.2934 230.42 11.1404L230.305 10.6537C230.954 10.5005 231.602 10.3492 232.249 10.1996L232.362 10.6868C233.009 10.5375 233.655 10.39 234.301 10.2443L234.19 9.75661C234.837 9.61077 235.483 9.46675 236.128 9.32459L236.235 9.81287C236.888 9.66915 237.539 9.52731 238.19 9.38735L238.085 8.89852C238.74 8.75774 239.394 8.61886 240.047 8.48187L240.15 8.97123C240.802 8.83442 241.454 8.6995 242.105 8.56647L242.005 8.07659C242.657 7.9434 243.308 7.8121 243.959 7.68269L244.056 8.17308C244.706 8.04384 245.355 7.91649 246.003 7.79103L245.908 7.30014C246.562 7.17365 247.215 7.04906 247.867 6.92639L247.959 7.41777C248.617 7.29394 249.275 7.17207 249.931 7.05215L249.842 6.56029C250.499 6.44022 251.156 6.32208 251.812 6.20592L251.899 6.69825C252.554 6.58224 253.208 6.46818 253.861 6.35607L253.777 5.86327C254.431 5.751 255.084 5.6407 255.737 5.53234L255.819 6.02558C256.472 5.91706 257.125 5.8105 257.777 5.70589L257.697 5.21222C258.36 5.1058 259.022 5.00139 259.684 4.899L259.76 5.39312C260.42 5.29088 261.08 5.19066 261.738 5.09245L261.664 4.59793C262.324 4.49958 262.982 4.40325 263.639 4.30895L263.71 4.80388C264.367 4.70971 265.022 4.61755 265.677 4.5274L265.609 4.03208C266.264 3.94179 266.919 3.85352 267.572 3.76725L267.637 4.26296C268.303 4.17512 268.967 4.08936 269.631 4.0057L269.568 3.50963C270.233 3.42584 270.896 3.34416 271.558 3.26455L271.618 3.76098C272.279 3.68149 272.939 3.60408 273.598 3.52877L273.541 3.032C274.201 2.95658 274.86 2.88325 275.518 2.81199L275.572 3.30908C276.228 3.23793 276.884 3.16887 277.538 3.10188L277.487 2.60448C278.156 2.53604 278.824 2.46976 279.49 2.40565L279.538 2.90335C280.204 2.83929 280.868 2.7774 281.531 2.71766L281.487 2.21968C282.151 2.15985 282.814 2.1022 283.476 2.04671L283.518 2.54497C284.178 2.48956 284.838 2.43632 285.496 2.38524L285.457 1.88674C286.117 1.83555 286.775 1.78653 287.432 1.73967L287.468 2.2384C288.138 2.1906 288.807 2.14505 289.474 2.10176L289.442 1.60282C290.11 1.55945 290.777 1.51835 291.443 1.47949L291.472 1.97864C292.137 1.93984 292.8 1.90331 293.461 1.86902L293.436 1.36968C294.098 1.33533 294.76 1.30323 295.42 1.27338L295.442 1.77287C296.104 1.74293 296.764 1.71527 297.423 1.68986L297.403 1.19023C298.076 1.16431 298.746 1.14072 299.416 1.11949L299.431 1.61925C300.099 1.59805 300.766 1.57921 301.43 1.56271L301.418 1.06286C302.084 1.04634 302.748 1.03214 303.411 1.02031L303.42 1.52023C304.081 1.50842 304.741 1.49894 305.4 1.4918L305.394 0.991827C306.061 0.984598 306.726 0.979757 307.39 0.977309L307.392 1.47731C308.063 1.47484 308.732 1.47481 309.399 1.47724L309.401 0.977251C310.069 0.979687 310.736 0.984562 311.401 0.9919L311.396 1.49187C312.059 1.49919 312.721 1.50896 313.381 1.52117L313.39 1.02126C314.052 1.03349 314.711 1.04818 315.369 1.06531L315.356 1.56514C316.026 1.5826 316.695 1.60262 317.362 1.6252L317.379 1.12548C318.049 1.14816 318.718 1.17344 319.384 1.20127L319.363 1.70083C320.029 1.72861 320.692 1.75893 321.353 1.79184L321.378 1.29244C322.04 1.32541 322.7 1.36093 323.358 1.39902L323.33 1.89819C323.993 1.93656 324.654 1.97756 325.313 2.02114L325.346 1.52224C326.018 1.56665 326.687 1.61377 327.354 1.66358L327.317 2.16219C327.983 2.2119 328.646 2.26429 329.307 2.31938L329.349 1.8211C330.011 1.8763 330.671 1.93419 331.329 1.99477L331.284 2.49266C331.94 2.55311 332.594 2.61623 333.246 2.68204L333.296 2.18456C333.967 2.25236 334.636 2.32298 335.303 2.39644L335.248 2.89343C335.913 2.96675 336.575 3.04288 337.235 3.12184L337.295 2.62538C337.956 2.70453 338.615 2.7865 339.271 2.87131L339.207 3.36719C339.862 3.45179 340.514 3.53921 341.163 3.62944L341.232 3.1342C341.897 3.2266 342.56 3.32196 343.219 3.42026L343.145 3.9148C343.808 4.01359 344.468 4.11535 345.125 4.2201L345.204 3.72634C345.863 3.83135 346.519 3.93934 347.172 4.05032L347.088 4.54326C347.74 4.65394 348.388 4.76761 349.033 4.88423L349.122 4.3922C349.781 4.51126 350.437 4.63342 351.09 4.75865L350.996 5.2497C351.655 5.37607 352.31 5.50559 352.963 5.63825L353.062 5.14828C353.716 5.28131 354.367 5.41747 355.015 5.5568L354.91 6.04563C355.556 6.18456 356.199 6.32663 356.838 6.47181L356.949 5.98423C357.602 6.13252 358.251 6.28407 358.897 6.43888L358.781 6.92512C359.433 7.08141 360.082 7.24101 360.727 7.40394L360.85 6.91916C361.497 7.08258 362.14 7.24935 362.78 7.41944L362.652 7.90266C363.29 8.07222 363.924 8.24508 364.554 8.42126L364.689 7.9397C365.336 8.12037 365.979 8.30451 366.618 8.49212L366.477 8.97188C367.12 9.16063 367.758 9.3529 368.393 9.54868L368.541 9.07088C369.178 9.26732 369.811 9.46731 370.439 9.67081L370.286 10.1465C370.912 10.3493 371.535 10.5556 372.153 10.7654L372.314 10.2919C372.953 10.5087 373.588 10.7293 374.219 10.9536L374.051 11.4247C374.681 11.6487 375.306 11.8764 375.927 12.1078L376.102 11.6393C376.725 11.8716 377.343 12.1076 377.957 12.3474L377.776 12.8132C378.393 13.0541 379.005 13.2988 379.613 13.5473L379.802 13.0845C380.426 13.3398 381.046 13.5991 381.66 13.8623L381.463 14.3219C382.075 14.584 382.682 14.8501 383.284 15.1201L383.489 14.6639C384.093 14.9351 384.693 15.2102 385.287 15.4893L385.075 15.9419C385.681 16.2262 386.281 16.5146 386.876 16.8072L387.097 16.3585C387.699 16.6548 388.296 16.9553 388.888 17.26L388.659 17.7045C389.248 18.0078 389.831 18.3152 390.409 18.6268L390.646 18.1867C391.232 18.5028 391.812 18.8231 392.386 19.1477L392.14 19.583C392.724 19.9127 393.302 20.2469 393.873 20.5855L394.128 20.1553C394.702 20.4956 395.271 20.8404 395.833 21.1896L395.569 21.6143C396.128 21.9616 396.681 22.3134 397.228 22.6694L397.501 22.2504C398.066 22.6186 398.625 22.9914 399.177 23.3689L398.895 23.7817C399.444 24.1572 399.987 24.5375 400.522 24.9223L400.814 24.5162C401.353 24.9032 401.885 25.295 402.411 25.6914L402.109 26.0905C402.642 26.4922 403.167 26.8986 403.685 27.3098L403.996 26.9182C404.521 27.3347 405.038 27.7561 405.548 28.1823L405.227 28.566C405.734 28.9895 406.234 29.4179 406.726 29.8511L407.056 29.4758C407.558 29.9176 408.052 30.3644 408.538 30.8162L408.198 31.1825C408.685 31.6353 409.165 32.0931 409.636 32.5559L409.987 32.199C410.462 32.665 410.928 33.1362 411.387 33.6123L411.027 33.9593C411.487 34.4362 411.938 34.9183 412.381 35.4054L412.751 35.0689C413.202 35.5637 413.643 36.0638 414.076 36.5691L413.697 36.8945C414.127 37.3961 414.548 37.9027 414.961 38.4146L415.35 38.1006C415.769 38.6191 416.178 39.1429 416.579 39.672L416.181 39.9739C416.581 40.502 416.972 41.0353 417.354 41.5738L417.762 41.2844C418.147 41.8273 418.523 42.3754 418.89 42.9288L418.473 43.2052C418.838 43.7553 419.194 44.3107 419.541 44.8714L419.966 44.6084C420.316 45.1749 420.657 45.7466 420.989 46.3238L420.555 46.5728C420.884 47.1452 421.203 47.7229 421.513 48.3059L421.955 48.0711C422.267 48.6578 422.57 49.2498 422.863 49.8472L422.414 50.0674C422.704 50.6587 422.985 51.2553 423.256 51.8571L423.712 51.6517Z" stroke="#C4B39B" stroke-dasharray="2 2"/>
</svg>
