<svg width="623" height="382" viewBox="0 0 623 382" fill="none" xmlns="http://www.w3.org/2000/svg">
<path d="M81 164H5" stroke="#F0EDE6" stroke-width="4"/>
<path d="M5.561 105V55.0852H38.056V61.1152H12.127V76.9272H36.716V82.9572H12.127V98.9702H38.056V105H5.561ZM45.4558 105V54.2812H51.6868V105H45.4558ZM77.9713 105.804C74.4873 105.804 71.3829 104.978 68.6583 103.325C65.9336 101.673 63.7896 99.4169 62.2263 96.5582C60.6629 93.6549 59.8813 90.4166 59.8813 86.8432C59.8813 83.2252 60.6406 80.0092 62.1593 77.1952C63.7226 74.3812 65.8219 72.1702 68.4573 70.5622C71.1373 68.9096 74.1299 68.0832 77.4353 68.0832C80.1153 68.0832 82.4826 68.5746 84.5373 69.5572C86.6366 70.4952 88.4009 71.7906 89.8303 73.4432C91.3043 75.0512 92.4209 76.9049 93.1803 79.0042C93.9843 81.0589 94.3862 83.2029 94.3862 85.4362C94.3862 85.9276 94.3416 86.4859 94.2523 87.1112C94.2076 87.6919 94.1406 88.2502 94.0513 88.7862H64.4373V83.4262H90.4333L87.4853 85.8382C87.8873 83.5156 87.6639 81.4386 86.8153 79.6072C85.9666 77.7759 84.7159 76.3242 83.0633 75.2522C81.4106 74.1802 79.5346 73.6442 77.4353 73.6442C75.3359 73.6442 73.4153 74.1802 71.6733 75.2522C69.9313 76.3242 68.5689 77.8652 67.5863 79.8752C66.6483 81.8406 66.2686 84.1856 66.4473 86.9102C66.2686 89.5456 66.6706 91.8682 67.6533 93.8782C68.6806 95.8436 70.1099 97.3846 71.9413 98.5012C73.8173 99.5732 75.8496 100.109 78.0383 100.109C80.4503 100.109 82.4826 99.5509 84.1353 98.4342C85.7879 97.3176 87.1279 95.8882 88.1553 94.1462L93.3813 96.8262C92.6666 98.4789 91.5499 99.9976 90.0312 101.382C88.5573 102.722 86.7929 103.794 84.7383 104.598C82.7283 105.402 80.4726 105.804 77.9713 105.804ZM119.73 119.74C117.184 119.74 114.816 119.338 112.628 118.534C110.484 117.73 108.63 116.614 107.067 115.184C105.548 113.8 104.387 112.169 103.583 110.293L109.412 107.613C110.037 109.311 111.221 110.74 112.963 111.901C114.749 113.107 116.983 113.71 119.663 113.71C121.717 113.71 123.571 113.308 125.224 112.504C126.921 111.745 128.261 110.584 129.244 109.02C130.226 107.502 130.718 105.648 130.718 103.459V95.3522L131.857 96.5582C130.606 99.0149 128.797 100.891 126.43 102.186C124.107 103.482 121.539 104.129 118.725 104.129C115.33 104.129 112.293 103.348 109.613 101.784C106.933 100.176 104.833 98.0099 103.315 95.2852C101.796 92.5159 101.037 89.4562 101.037 86.1062C101.037 82.7116 101.796 79.6519 103.315 76.9272C104.833 74.2026 106.91 72.0586 109.546 70.4952C112.226 68.8872 115.263 68.0832 118.658 68.0832C121.472 68.0832 124.018 68.7309 126.296 70.0262C128.618 71.2769 130.472 73.0189 131.857 75.2522L130.919 76.9272V68.8872H137.016V103.459C137.016 106.586 136.279 109.378 134.805 111.834C133.331 114.291 131.276 116.212 128.641 117.596C126.05 119.026 123.08 119.74 119.73 119.74ZM119.261 98.0992C121.405 98.0992 123.325 97.5632 125.023 96.4912C126.765 95.4192 128.149 93.9899 129.177 92.2032C130.204 90.3719 130.718 88.3396 130.718 86.1062C130.718 83.9176 130.204 81.9076 129.177 80.0762C128.149 78.2449 126.765 76.7932 125.023 75.7212C123.325 74.6492 121.405 74.1132 119.261 74.1132C117.072 74.1132 115.084 74.6492 113.298 75.7212C111.511 76.7932 110.104 78.2449 109.077 80.0762C108.094 81.8629 107.603 83.8729 107.603 86.1062C107.603 88.3396 108.094 90.3719 109.077 92.2032C110.104 93.9899 111.489 95.4192 113.231 96.4912C115.017 97.5632 117.027 98.0992 119.261 98.0992ZM157.262 105.804C154.894 105.804 152.795 105.38 150.964 104.531C149.177 103.638 147.77 102.432 146.743 100.913C145.715 99.3499 145.202 97.5632 145.202 95.5532C145.202 93.6326 145.604 91.9129 146.408 90.3942C147.256 88.8309 148.552 87.5132 150.294 86.4412C152.08 85.3692 154.314 84.6099 156.994 84.1632L170.394 81.9522V87.1782L158.401 89.1882C156.078 89.5902 154.381 90.3272 153.309 91.3992C152.281 92.4712 151.768 93.7889 151.768 95.3522C151.768 96.8262 152.348 98.0546 153.51 99.0372C154.716 100.02 156.212 100.511 157.999 100.511C160.277 100.511 162.242 100.042 163.895 99.1042C165.592 98.1216 166.91 96.8039 167.848 95.1512C168.83 93.4986 169.322 91.6672 169.322 89.6572V80.4782C169.322 78.5129 168.585 76.9272 167.111 75.7212C165.681 74.4706 163.783 73.8452 161.416 73.8452C159.361 73.8452 157.53 74.3812 155.922 75.4532C154.358 76.4806 153.197 77.8652 152.438 79.6072L147.011 76.7932C147.681 75.1406 148.753 73.6666 150.227 72.3712C151.701 71.0312 153.42 69.9816 155.386 69.2222C157.351 68.4629 159.406 68.0832 161.55 68.0832C164.319 68.0832 166.753 68.6192 168.853 69.6912C170.952 70.7186 172.582 72.1702 173.744 74.0462C174.95 75.8776 175.553 78.0216 175.553 80.4782V105H169.456V98.1662L170.595 98.5682C169.835 99.9976 168.808 101.248 167.513 102.32C166.217 103.392 164.699 104.241 162.957 104.866C161.215 105.492 159.316 105.804 157.262 105.804ZM185.214 105V68.8872H191.311V75.9222L190.306 75.3192C191.199 73.0412 192.628 71.2769 194.594 70.0262C196.604 68.7309 198.949 68.0832 201.629 68.0832C204.219 68.0832 206.52 68.6639 208.53 69.8252C210.584 70.9866 212.192 72.5946 213.354 74.6492C214.56 76.7039 215.163 79.0266 215.163 81.6172V105H208.865V83.6272C208.865 81.6172 208.507 79.9199 207.793 78.5352C207.078 77.1506 206.051 76.0786 204.711 75.3192C203.415 74.5152 201.919 74.1132 200.222 74.1132C198.524 74.1132 197.006 74.5152 195.666 75.3192C194.37 76.0786 193.343 77.1729 192.584 78.6022C191.824 79.9869 191.445 81.6619 191.445 83.6272V105H185.214ZM238.752 105.402C235.223 105.402 232.499 104.397 230.578 102.387C228.702 100.377 227.764 97.5409 227.764 93.8782V74.8502H221.198V68.8872H222.538C224.146 68.8872 225.419 68.3959 226.357 67.4132C227.295 66.4306 227.764 65.1352 227.764 63.5272V60.5792H233.995V68.8872H242.102V74.8502H233.995V93.6772C233.995 94.8832 234.174 95.9329 234.531 96.8262C234.933 97.7196 235.581 98.4342 236.474 98.9702C237.367 99.4616 238.551 99.7072 240.025 99.7072C240.338 99.7072 240.717 99.6849 241.164 99.6402C241.655 99.5956 242.102 99.5509 242.504 99.5062V105C241.923 105.134 241.276 105.224 240.561 105.268C239.846 105.358 239.243 105.402 238.752 105.402Z" fill="#F0EDE6"/>
<path d="M105.44 181.804C101.956 181.804 98.8517 180.978 96.127 179.325C93.4023 177.673 91.2583 175.417 89.695 172.558C88.1317 169.655 87.35 166.417 87.35 162.843C87.35 159.225 88.1093 156.009 89.628 153.195C91.1913 150.381 93.2907 148.17 95.926 146.562C98.606 144.91 101.599 144.083 104.904 144.083C107.584 144.083 109.951 144.575 112.006 145.557C114.105 146.495 115.87 147.791 117.299 149.443C118.773 151.051 119.89 152.905 120.649 155.004C121.453 157.059 121.855 159.203 121.855 161.436C121.855 161.928 121.81 162.486 121.721 163.111C121.676 163.692 121.609 164.25 121.52 164.786H91.906V159.426H117.902L114.954 161.838C115.356 159.516 115.133 157.439 114.284 155.607C113.435 153.776 112.185 152.324 110.532 151.252C108.879 150.18 107.003 149.644 104.904 149.644C102.805 149.644 100.884 150.18 99.142 151.252C97.4 152.324 96.0377 153.865 95.055 155.875C94.117 157.841 93.7373 160.186 93.916 162.91C93.7373 165.546 94.1393 167.868 95.122 169.878C96.1493 171.844 97.5787 173.385 99.41 174.501C101.286 175.573 103.318 176.109 105.507 176.109C107.919 176.109 109.951 175.551 111.604 174.434C113.257 173.318 114.597 171.888 115.624 170.146L120.85 172.826C120.135 174.479 119.019 175.998 117.5 177.382C116.026 178.722 114.262 179.794 112.207 180.598C110.197 181.402 107.941 181.804 105.44 181.804ZM125.238 181L137.901 162.91L125.305 144.887H132.809L143.596 160.565H139.777L150.43 144.887H158.001L145.405 162.91L157.934 181H150.43L139.777 165.322H143.529L132.876 181H125.238ZM178.986 181.804C175.457 181.804 172.308 180.978 169.539 179.325C166.814 177.673 164.67 175.417 163.107 172.558C161.544 169.7 160.762 166.484 160.762 162.91C160.762 159.292 161.544 156.076 163.107 153.262C164.67 150.448 166.814 148.215 169.539 146.562C172.308 144.91 175.457 144.083 178.986 144.083C181.353 144.083 183.564 144.508 185.619 145.356C187.674 146.205 189.483 147.344 191.046 148.773C192.609 150.203 193.748 151.878 194.463 153.798L188.902 156.478C188.053 154.602 186.758 153.084 185.016 151.922C183.274 150.716 181.264 150.113 178.986 150.113C176.797 150.113 174.81 150.672 173.023 151.788C171.281 152.905 169.896 154.424 168.869 156.344C167.842 158.265 167.328 160.476 167.328 162.977C167.328 165.389 167.842 167.578 168.869 169.543C169.896 171.464 171.281 172.983 173.023 174.099C174.81 175.216 176.797 175.774 178.986 175.774C181.264 175.774 183.274 175.194 185.016 174.032C186.758 172.826 188.053 171.241 188.902 169.275L194.463 172.089C193.748 173.965 192.609 175.64 191.046 177.114C189.483 178.544 187.674 179.683 185.619 180.531C183.564 181.38 181.353 181.804 178.986 181.804ZM219.222 181.804C215.738 181.804 212.634 180.978 209.909 179.325C207.185 177.673 205.041 175.417 203.477 172.558C201.914 169.655 201.132 166.417 201.132 162.843C201.132 159.225 201.892 156.009 203.41 153.195C204.974 150.381 207.073 148.17 209.708 146.562C212.388 144.91 215.381 144.083 218.686 144.083C221.366 144.083 223.734 144.575 225.788 145.557C227.888 146.495 229.652 147.791 231.081 149.443C232.555 151.051 233.672 152.905 234.431 155.004C235.235 157.059 235.637 159.203 235.637 161.436C235.637 161.928 235.593 162.486 235.503 163.111C235.459 163.692 235.392 164.25 235.302 164.786H205.688V159.426H231.684L228.736 161.838C229.138 159.516 228.915 157.439 228.066 155.607C227.218 153.776 225.967 152.324 224.314 151.252C222.662 150.18 220.786 149.644 218.686 149.644C216.587 149.644 214.666 150.18 212.924 151.252C211.182 152.324 209.82 153.865 208.837 155.875C207.899 157.841 207.52 160.186 207.698 162.91C207.52 165.546 207.922 167.868 208.904 169.878C209.932 171.844 211.361 173.385 213.192 174.501C215.068 175.573 217.101 176.109 219.289 176.109C221.701 176.109 223.734 175.551 225.386 174.434C227.039 173.318 228.379 171.888 229.406 170.146L234.632 172.826C233.918 174.479 232.801 175.998 231.282 177.382C229.808 178.722 228.044 179.794 225.989 180.598C223.979 181.402 221.724 181.804 219.222 181.804ZM243.762 194.4V144.887H249.859V152.659L249.055 151.118C250.395 148.974 252.226 147.277 254.549 146.026C256.871 144.731 259.529 144.083 262.522 144.083C265.916 144.083 268.954 144.91 271.634 146.562C274.358 148.215 276.502 150.471 278.066 153.329C279.629 156.143 280.411 159.359 280.411 162.977C280.411 166.506 279.629 169.7 278.066 172.558C276.502 175.417 274.358 177.673 271.634 179.325C268.954 180.978 265.894 181.804 262.455 181.804C259.551 181.804 256.894 181.157 254.482 179.861C252.114 178.566 250.283 176.735 248.988 174.367L249.993 173.295V194.4H243.762ZM261.986 175.774C264.264 175.774 266.296 175.216 268.083 174.099C269.869 172.983 271.254 171.464 272.237 169.543C273.264 167.578 273.778 165.389 273.778 162.977C273.778 160.476 273.264 158.287 272.237 156.411C271.254 154.491 269.869 152.972 268.083 151.855C266.296 150.694 264.264 150.113 261.986 150.113C259.708 150.113 257.653 150.672 255.822 151.788C254.035 152.905 252.606 154.446 251.534 156.411C250.506 158.332 249.993 160.521 249.993 162.977C249.993 165.389 250.506 167.578 251.534 169.543C252.606 171.464 254.035 172.983 255.822 174.099C257.653 175.216 259.708 175.774 261.986 175.774ZM302.6 181.402C299.071 181.402 296.346 180.397 294.426 178.387C292.55 176.377 291.612 173.541 291.612 169.878V150.85H285.046V144.887H286.386C287.994 144.887 289.267 144.396 290.205 143.413C291.143 142.431 291.612 141.135 291.612 139.527V136.579H297.843V144.887H305.95V150.85H297.843V169.677C297.843 170.883 298.021 171.933 298.379 172.826C298.781 173.72 299.428 174.434 300.322 174.97C301.215 175.462 302.399 175.707 303.873 175.707C304.185 175.707 304.565 175.685 305.012 175.64C305.503 175.596 305.95 175.551 306.352 175.506V181C305.771 181.134 305.123 181.224 304.409 181.268C303.694 181.358 303.091 181.402 302.6 181.402ZM314.491 181V144.887H320.722V181H314.491ZM314.491 139.125V131.085H320.722V139.125H314.491ZM347.542 181.804C344.058 181.804 340.909 181 338.095 179.392C335.281 177.74 333.048 175.484 331.395 172.625C329.743 169.767 328.916 166.528 328.916 162.91C328.916 159.292 329.72 156.076 331.328 153.262C332.981 150.448 335.214 148.215 338.028 146.562C340.842 144.91 344.014 144.083 347.542 144.083C351.026 144.083 354.175 144.91 356.989 146.562C359.803 148.17 362.014 150.381 363.622 153.195C365.275 156.009 366.101 159.248 366.101 162.91C366.101 166.573 365.253 169.834 363.555 172.692C361.858 175.506 359.602 177.74 356.788 179.392C354.019 181 350.937 181.804 347.542 181.804ZM347.542 175.774C349.776 175.774 351.786 175.216 353.572 174.099C355.404 172.983 356.833 171.442 357.86 169.476C358.932 167.511 359.468 165.322 359.468 162.91C359.468 160.454 358.932 158.287 357.86 156.411C356.833 154.491 355.404 152.972 353.572 151.855C351.786 150.694 349.776 150.113 347.542 150.113C345.264 150.113 343.21 150.694 341.378 151.855C339.592 152.972 338.162 154.491 337.09 156.411C336.018 158.287 335.482 160.454 335.482 162.91C335.482 165.322 336.018 167.511 337.09 169.476C338.162 171.442 339.592 172.983 341.378 174.099C343.21 175.216 345.264 175.774 347.542 175.774ZM374.228 181V144.887H380.325V151.922L379.32 151.319C380.214 149.041 381.643 147.277 383.608 146.026C385.618 144.731 387.963 144.083 390.643 144.083C393.234 144.083 395.534 144.664 397.544 145.825C399.599 146.987 401.207 148.595 402.368 150.649C403.574 152.704 404.177 155.027 404.177 157.617V181H397.879V159.627C397.879 157.617 397.522 155.92 396.807 154.535C396.093 153.151 395.065 152.079 393.725 151.319C392.43 150.515 390.934 150.113 389.236 150.113C387.539 150.113 386.02 150.515 384.68 151.319C383.385 152.079 382.358 153.173 381.598 154.602C380.839 155.987 380.459 157.662 380.459 159.627V181H374.228ZM423.68 181.804C421.312 181.804 419.213 181.38 417.382 180.531C415.595 179.638 414.188 178.432 413.161 176.913C412.133 175.35 411.62 173.563 411.62 171.553C411.62 169.633 412.022 167.913 412.826 166.394C413.674 164.831 414.97 163.513 416.712 162.441C418.498 161.369 420.732 160.61 423.412 160.163L436.812 157.952V163.178L424.819 165.188C422.496 165.59 420.799 166.327 419.727 167.399C418.699 168.471 418.186 169.789 418.186 171.352C418.186 172.826 418.766 174.055 419.928 175.037C421.134 176.02 422.63 176.511 424.417 176.511C426.695 176.511 428.66 176.042 430.313 175.104C432.01 174.122 433.328 172.804 434.266 171.151C435.248 169.499 435.74 167.667 435.74 165.657V156.478C435.74 154.513 435.003 152.927 433.529 151.721C432.099 150.471 430.201 149.845 427.834 149.845C425.779 149.845 423.948 150.381 422.34 151.453C420.776 152.481 419.615 153.865 418.856 155.607L413.429 152.793C414.099 151.141 415.171 149.667 416.645 148.371C418.119 147.031 419.838 145.982 421.804 145.222C423.769 144.463 425.824 144.083 427.968 144.083C430.737 144.083 433.171 144.619 435.271 145.691C437.37 146.719 439 148.17 440.162 150.046C441.368 151.878 441.971 154.022 441.971 156.478V181H435.874V174.166L437.013 174.568C436.253 175.998 435.226 177.248 433.931 178.32C432.635 179.392 431.117 180.241 429.375 180.866C427.633 181.492 425.734 181.804 423.68 181.804ZM451.632 181V130.281H457.863V181H451.632Z" fill="#F0EDE6"/>
<path d="M578.712 105.652C578.985 106.258 579.249 106.871 579.503 107.488L579.041 107.678C579.167 107.984 579.29 108.292 579.411 108.6C579.533 108.909 579.651 109.219 579.767 109.529L580.235 109.354C580.469 109.979 580.692 110.607 580.904 111.238L580.43 111.397C580.641 112.023 580.841 112.651 581.031 113.282L581.509 113.138C581.701 113.775 581.882 114.415 582.052 115.057L581.569 115.186C581.738 115.824 581.897 116.465 582.045 117.108L582.532 116.996C582.682 117.644 582.821 118.295 582.949 118.949L582.459 119.045C582.586 119.692 582.703 120.341 582.81 120.992L583.303 120.912C583.411 121.567 583.508 122.225 583.595 122.884L583.099 122.95C583.185 123.604 583.261 124.261 583.327 124.921L583.825 124.871C583.891 125.531 583.947 126.194 583.993 126.858L583.494 126.893C583.539 127.549 583.575 128.207 583.601 128.867L584.101 128.848C584.127 129.513 584.143 130.18 584.15 130.849L583.65 130.854C583.656 131.512 583.653 132.173 583.641 132.835L584.141 132.844C584.128 133.505 584.106 134.168 584.075 134.833L583.576 134.81C583.545 135.47 583.505 136.131 583.455 136.795L583.954 136.832C583.905 137.494 583.847 138.157 583.779 138.822L583.282 138.772C583.216 139.424 583.141 140.078 583.058 140.733L583.554 140.796C583.47 141.456 583.377 142.117 583.276 142.779L582.782 142.703C582.682 143.357 582.573 144.012 582.456 144.669L582.948 144.756C582.833 145.404 582.709 146.053 582.577 146.704L582.087 146.604C581.956 147.251 581.817 147.899 581.67 148.548L582.158 148.658C582.01 149.31 581.854 149.964 581.69 150.618L581.205 150.497C581.046 151.13 580.88 151.764 580.707 152.399L581.189 152.53C581.014 153.169 580.832 153.808 580.643 154.448L580.163 154.306C579.975 154.943 579.778 155.581 579.575 156.22L580.051 156.372C579.851 157 579.644 157.63 579.429 158.26L578.956 158.099C578.744 158.72 578.526 159.342 578.301 159.965L578.771 160.135C578.544 160.761 578.311 161.387 578.071 162.014L577.604 161.836C577.367 162.455 577.123 163.074 576.873 163.695L577.336 163.882C577.09 164.491 576.838 165.1 576.579 165.71L576.119 165.515C575.861 166.123 575.597 166.73 575.327 167.339L575.784 167.542C575.513 168.153 575.235 168.764 574.951 169.376L574.497 169.166C574.221 169.761 573.938 170.357 573.65 170.953L574.1 171.171C573.813 171.764 573.52 172.358 573.221 172.952L572.775 172.728C572.477 173.32 572.174 173.912 571.865 174.504L572.308 174.736C571.998 175.329 571.683 175.923 571.362 176.516L570.922 176.278C570.611 176.853 570.295 177.428 569.974 178.003L570.41 178.247C570.087 178.824 569.759 179.401 569.426 179.978L568.993 179.728C568.661 180.303 568.323 180.879 567.981 181.455L568.41 181.71C568.069 182.283 567.723 182.855 567.372 183.427L566.946 183.166C566.604 183.724 566.256 184.282 565.904 184.84L566.327 185.107C565.974 185.667 565.615 186.227 565.252 186.787L564.833 186.515C564.47 187.073 564.103 187.631 563.732 188.19L564.148 188.467C563.779 189.02 563.406 189.573 563.029 190.126L562.616 189.843C562.246 190.385 561.871 190.926 561.492 191.467L561.902 191.754C561.522 192.297 561.137 192.839 560.748 193.382L560.342 193.091C559.954 193.631 559.562 194.172 559.165 194.713L559.568 195.009C559.174 195.545 558.777 196.081 558.374 196.616L557.975 196.316C557.581 196.84 557.183 197.365 556.781 197.889L557.177 198.193C556.774 198.719 556.367 199.244 555.955 199.769L555.562 199.461C555.151 199.985 554.737 200.508 554.318 201.032L554.708 201.344C554.292 201.865 553.871 202.385 553.447 202.905L553.059 202.589C552.645 203.097 552.226 203.604 551.804 204.112L552.188 204.432C551.765 204.94 551.337 205.448 550.906 205.956L550.525 205.633C550.095 206.14 549.661 206.646 549.224 207.152L549.602 207.479C549.163 207.986 548.721 208.493 548.275 208.999L547.9 208.669C547.467 209.16 547.03 209.652 546.59 210.142L546.963 210.476C546.522 210.968 546.077 211.46 545.629 211.951L545.26 211.614C544.812 212.104 544.362 212.594 543.908 213.083L544.274 213.423C543.819 213.913 543.36 214.403 542.898 214.892L542.535 214.549C542.081 215.029 541.624 215.509 541.164 215.989L541.525 216.335C541.068 216.81 540.609 217.286 540.145 217.76L539.788 217.411C539.325 217.885 538.86 218.358 538.391 218.831L538.746 219.183C538.277 219.657 537.804 220.13 537.328 220.603L536.976 220.248C536.502 220.718 536.025 221.188 535.546 221.657L535.895 222.014C535.425 222.474 534.951 222.933 534.475 223.392L534.128 223.032C533.653 223.49 533.174 223.947 532.693 224.404L533.037 224.767C532.554 225.224 532.069 225.681 531.581 226.138L531.239 225.773C530.752 226.228 530.261 226.684 529.768 227.138L530.106 227.506C529.618 227.955 529.127 228.404 528.634 228.853L528.298 228.483C527.81 228.925 527.32 229.367 526.827 229.808L527.161 230.181C526.667 230.623 526.17 231.064 525.671 231.505L525.34 231.13C524.841 231.57 524.34 232.01 523.836 232.449L524.164 232.826C523.659 233.265 523.152 233.704 522.641 234.143L522.316 233.763C521.815 234.193 521.313 234.621 520.807 235.05L521.13 235.431C520.626 235.858 520.12 236.284 519.611 236.71L519.29 236.326C518.782 236.751 518.271 237.176 517.757 237.599L518.075 237.985C517.561 238.409 517.044 238.833 516.525 239.256L516.209 238.868C515.69 239.29 515.169 239.712 514.645 240.132L514.958 240.522C514.445 240.935 513.929 241.347 513.411 241.758L513.1 241.366C512.583 241.776 512.063 242.186 511.541 242.595L511.849 242.988C511.327 243.398 510.801 243.807 510.274 244.215L509.968 243.819C509.441 244.226 508.912 244.633 508.38 245.039L508.684 245.436C508.152 245.843 507.617 246.248 507.08 246.653L506.779 246.254C506.254 246.65 505.727 247.045 505.197 247.439L505.495 247.84C504.965 248.236 504.432 248.63 503.897 249.024L503.601 248.621C503.066 249.014 502.53 249.406 501.991 249.798L502.285 250.202C501.745 250.594 501.204 250.985 500.66 251.376L500.368 250.97C500.117 251.15 499.866 251.33 499.615 251.509C499.321 251.719 499.027 251.928 498.732 252.137L499.021 252.545C498.484 252.926 497.944 253.307 497.402 253.686L497.115 253.277C496.574 253.656 496.031 254.034 495.485 254.412L495.77 254.823C495.224 255.201 494.676 255.578 494.126 255.954L493.843 255.542C493.294 255.918 492.743 256.293 492.189 256.667L492.469 257.081C491.915 257.456 491.358 257.83 490.8 258.203L490.522 257.787C489.973 258.153 489.423 258.519 488.87 258.884L489.145 259.301C488.593 259.666 488.039 260.029 487.483 260.392L487.21 259.973C486.655 260.336 486.098 260.697 485.539 261.057L485.81 261.478C485.25 261.839 484.688 262.199 484.125 262.558L483.856 262.136C483.293 262.495 482.728 262.853 482.161 263.21L482.428 263.633C481.867 263.986 481.303 264.339 480.738 264.691L480.474 264.267C479.913 264.615 479.351 264.964 478.787 265.311L479.049 265.737C478.484 266.084 477.917 266.431 477.349 266.777L477.089 266.35C476.521 266.695 475.952 267.039 475.38 267.383L475.638 267.811C475.066 268.155 474.492 268.499 473.916 268.841L473.661 268.411C473.089 268.751 472.514 269.09 471.939 269.429L472.192 269.86C471.622 270.194 471.051 270.528 470.478 270.861L470.227 270.428C469.654 270.761 469.08 271.092 468.505 271.423L468.754 271.856C468.177 272.187 467.599 272.517 467.019 272.846L466.773 272.411C466.193 272.74 465.613 273.068 465.03 273.394L465.275 273.831C464.692 274.158 464.107 274.484 463.52 274.809L463.278 274.372C462.7 274.692 462.12 275.012 461.539 275.33L461.779 275.769C461.199 276.087 460.617 276.404 460.033 276.72L459.795 276.281C459.212 276.596 458.627 276.911 458.041 277.225L458.277 277.666C457.69 277.98 457.102 278.293 456.512 278.606L456.278 278.164C455.689 278.476 455.098 278.787 454.505 279.097L454.737 279.54C454.147 279.848 453.555 280.156 452.962 280.463L452.732 280.019C452.146 280.322 451.558 280.624 450.968 280.926L451.195 281.371C450.605 281.673 450.013 281.973 449.42 282.273L449.194 281.827C448.602 282.126 448.008 282.425 447.412 282.722L447.635 283.169C447.039 283.467 446.441 283.764 445.842 284.059L445.621 283.611C445.022 283.906 444.422 284.2 443.821 284.494L444.04 284.943C443.444 285.233 442.847 285.523 442.248 285.811L442.031 285.361C441.435 285.648 440.838 285.934 440.239 286.219L440.454 286.67C439.855 286.956 439.254 287.24 438.652 287.523L438.439 287.071C437.838 287.354 437.235 287.635 436.631 287.916L436.842 288.37C436.237 288.651 435.63 288.931 435.023 289.21L434.814 288.755C434.208 289.034 433.6 289.311 432.991 289.587L433.198 290.043C432.596 290.316 431.992 290.588 431.387 290.859L431.183 290.403C430.578 290.674 429.973 290.943 429.366 291.212L429.569 291.669C428.961 291.938 428.352 292.206 427.742 292.473L427.542 292.015C426.933 292.281 426.322 292.546 425.71 292.811L425.908 293.27C425.296 293.534 424.682 293.798 424.066 294.06L423.87 293.6C423.258 293.861 422.645 294.121 422.03 294.38L422.225 294.841C421.615 295.098 421.003 295.354 420.391 295.608L420.199 295.147C419.587 295.401 418.974 295.654 418.36 295.907L418.55 296.369C417.935 296.622 417.319 296.873 416.702 297.123L416.514 296.66C415.897 296.91 415.279 297.159 414.66 297.407L414.846 297.871C414.226 298.119 413.605 298.366 412.983 298.612L412.8 298.147C412.489 298.269 412.178 298.392 411.867 298.514C411.555 298.636 411.244 298.758 410.933 298.879L411.115 299.345C410.491 299.588 409.868 299.829 409.245 300.069L409.066 299.602C408.444 299.842 407.821 300.08 407.199 300.316L407.377 300.783C406.754 301.02 406.131 301.254 405.509 301.488L405.334 301.019C404.712 301.252 404.09 301.484 403.469 301.713L403.642 302.182C403.02 302.412 402.398 302.64 401.776 302.867L401.605 302.397C400.978 302.625 400.352 302.852 399.725 303.077L399.895 303.547C399.265 303.774 398.636 303.998 398.007 304.221L397.84 303.749C397.212 303.972 396.583 304.193 395.956 304.412L396.12 304.884C395.492 305.104 394.863 305.321 394.235 305.537L394.072 305.065C393.445 305.28 392.818 305.495 392.191 305.707L392.351 306.181C391.723 306.393 391.096 306.604 390.469 306.814L390.31 306.34C389.676 306.551 389.042 306.761 388.408 306.97L388.564 307.445C387.929 307.653 387.294 307.861 386.659 308.066L386.506 307.59C385.872 307.795 385.238 307.999 384.605 308.2L384.757 308.677C384.123 308.879 383.489 309.079 382.855 309.278L382.706 308.8C382.073 308.999 381.441 309.195 380.809 309.39L380.956 309.868C380.321 310.064 379.686 310.258 379.052 310.45L378.907 309.972C378.588 310.069 378.268 310.165 377.949 310.261C377.628 310.358 377.308 310.454 376.987 310.549L377.13 311.028C376.49 311.219 375.85 311.408 375.21 311.596L375.069 311.116C374.431 311.303 373.792 311.489 373.154 311.672L373.292 312.153C372.654 312.337 372.015 312.519 371.377 312.699L371.241 312.218C370.604 312.398 369.967 312.577 369.331 312.753L369.465 313.235C368.821 313.414 368.178 313.591 367.535 313.766L367.404 313.283C366.759 313.459 366.114 313.633 365.47 313.805L365.599 314.289C364.954 314.461 364.31 314.632 363.666 314.8L363.539 314.317C362.896 314.485 362.253 314.652 361.611 314.817L361.736 315.301C361.093 315.467 360.45 315.63 359.808 315.792L359.686 315.307C359.043 315.469 358.401 315.629 357.76 315.787L357.879 316.272C357.228 316.433 356.578 316.592 355.928 316.749L355.81 316.263C355.161 316.419 354.513 316.574 353.865 316.727L353.979 317.214C353.331 317.367 352.682 317.518 352.035 317.668L351.922 317.181C351.275 317.33 350.629 317.478 349.984 317.623L350.094 318.111C349.447 318.257 348.801 318.401 348.156 318.543L348.049 318.055C347.396 318.198 346.745 318.34 346.094 318.48L346.199 318.969C345.544 319.11 344.89 319.249 344.237 319.386L344.134 318.896C343.482 319.033 342.83 319.168 342.179 319.301L342.279 319.791C341.627 319.924 340.976 320.055 340.325 320.185L340.228 319.695C339.578 319.824 338.929 319.951 338.281 320.077L338.376 320.567C337.722 320.694 337.07 320.819 336.417 320.941L336.325 320.45C335.667 320.574 335.009 320.696 334.353 320.815L334.443 321.307C333.785 321.427 333.128 321.545 332.472 321.662L332.385 321.169C331.73 321.285 331.076 321.399 330.423 321.512L330.507 322.004C329.853 322.117 329.2 322.227 328.547 322.335L328.465 321.842C327.812 321.951 327.159 322.057 326.508 322.162L326.587 322.655C325.924 322.762 325.262 322.866 324.601 322.969L324.524 322.474C323.864 322.577 323.204 322.677 322.546 322.775L322.62 323.27C321.961 323.368 321.302 323.464 320.645 323.559L320.574 323.064C319.917 323.158 319.262 323.25 318.607 323.34L318.676 323.836C318.02 323.926 317.366 324.014 316.712 324.1L316.647 323.605C315.981 323.692 315.317 323.778 314.653 323.862L314.716 324.358C314.052 324.442 313.388 324.523 312.726 324.603L312.667 324.107C312.005 324.186 311.345 324.263 310.686 324.339L310.743 324.836C310.083 324.911 309.424 324.984 308.766 325.056L308.713 324.558C308.056 324.63 307.4 324.699 306.746 324.766L306.797 325.263C306.128 325.332 305.461 325.398 304.794 325.462L304.746 324.964C304.081 325.028 303.416 325.09 302.753 325.15L302.798 325.648C302.133 325.708 301.47 325.765 300.808 325.821L300.767 325.323C300.106 325.378 299.446 325.431 298.788 325.482L298.827 325.981C298.167 326.032 297.509 326.081 296.852 326.128L296.816 325.629C296.146 325.677 295.477 325.723 294.81 325.766L294.842 326.265C294.174 326.308 293.507 326.349 292.841 326.388L292.812 325.889C292.148 325.928 291.484 325.964 290.823 325.999L290.849 326.498C290.186 326.532 289.525 326.564 288.865 326.594L288.842 326.095C288.18 326.125 287.52 326.152 286.861 326.178L286.881 326.677C286.208 326.703 285.538 326.727 284.869 326.748L284.853 326.248C284.185 326.27 283.518 326.288 282.854 326.305L282.866 326.805C282.2 326.821 281.536 326.835 280.873 326.847L280.864 326.347C280.203 326.359 279.543 326.369 278.885 326.376L278.89 326.876C278.223 326.883 277.558 326.888 276.894 326.89L276.893 326.39C276.222 326.393 275.552 326.393 274.885 326.39L274.883 326.89C274.215 326.888 273.548 326.883 272.883 326.876L272.889 326.376C272.225 326.368 271.563 326.359 270.903 326.346L270.894 326.846C270.233 326.834 269.573 326.819 268.916 326.802L268.929 326.302C268.258 326.285 267.589 326.265 266.922 326.242L266.905 326.742C266.235 326.719 265.566 326.694 264.9 326.666L264.921 326.167C264.256 326.139 263.592 326.109 262.931 326.076L262.907 326.575C262.244 326.542 261.584 326.507 260.926 326.469L260.955 325.969C260.291 325.931 259.63 325.89 258.971 325.846L258.938 326.345C258.266 326.301 257.597 326.254 256.93 326.204L256.967 325.705C256.301 325.656 255.638 325.603 254.977 325.548L254.935 326.046C254.273 325.991 253.613 325.933 252.955 325.873L253.001 325.375C252.344 325.314 251.69 325.251 251.038 325.186L250.988 325.683C250.317 325.615 249.648 325.545 248.981 325.471L249.036 324.974C248.371 324.901 247.709 324.825 247.049 324.746L246.989 325.242C246.328 325.163 245.669 325.081 245.013 324.996L245.077 324.5C244.422 324.416 243.77 324.328 243.121 324.238L243.052 324.733C242.387 324.641 241.725 324.546 241.065 324.447L241.139 323.953C240.476 323.854 239.816 323.752 239.159 323.647L239.08 324.141C238.421 324.036 237.765 323.928 237.112 323.817L237.196 323.324C236.545 323.214 235.896 323.1 235.251 322.983L235.162 323.475C234.503 323.356 233.847 323.234 233.194 323.109L233.288 322.618C232.63 322.492 231.974 322.362 231.322 322.229L231.222 322.719C230.568 322.586 229.917 322.45 229.269 322.311L229.374 321.822C228.728 321.683 228.086 321.541 227.446 321.396L227.335 321.883C226.682 321.735 226.033 321.584 225.387 321.429L225.503 320.942C224.851 320.786 224.202 320.627 223.557 320.464L223.435 320.948C222.787 320.785 222.144 320.618 221.504 320.448L221.632 319.965C220.995 319.795 220.36 319.622 219.73 319.446L219.595 319.928C218.948 319.747 218.306 319.563 217.667 319.375L217.808 318.896C217.165 318.707 216.526 318.515 215.891 318.319L215.744 318.797C215.107 318.6 214.474 318.4 213.845 318.197L213.999 317.721C213.372 317.518 212.749 317.312 212.131 317.102L211.97 317.576C211.331 317.359 210.696 317.138 210.065 316.914L210.233 316.443C209.603 316.219 208.978 315.991 208.357 315.76L208.183 316.228C207.559 315.996 206.941 315.76 206.327 315.52L206.509 315.054C205.892 314.813 205.279 314.569 204.672 314.32L204.482 314.783C203.858 314.528 203.238 314.269 202.624 314.005L202.821 313.546C202.209 313.284 201.602 313.017 201 312.747L200.795 313.204C200.191 312.933 199.591 312.657 198.997 312.378L199.209 311.926C198.604 311.641 198.003 311.353 197.408 311.06L197.188 311.509C196.585 311.213 195.988 310.912 195.396 310.608L195.625 310.163C195.037 309.86 194.453 309.552 193.876 309.241L193.638 309.681C193.052 309.365 192.472 309.045 191.898 308.72L192.144 308.285C191.56 307.955 190.983 307.621 190.411 307.282L190.156 307.712C189.582 307.372 189.013 307.027 188.451 306.678L188.715 306.253C188.156 305.906 187.603 305.554 187.056 305.198L186.783 305.617C186.218 305.249 185.659 304.876 185.107 304.499L185.389 304.086C184.84 303.71 184.298 303.33 183.762 302.945L183.47 303.351C182.931 302.964 182.399 302.573 181.874 302.176L182.175 301.777C181.642 301.375 181.117 300.969 180.599 300.558L180.288 300.949C179.764 300.533 179.246 300.112 178.736 299.685L179.057 299.302C178.55 298.878 178.051 298.45 177.559 298.016L177.228 298.392C176.726 297.95 176.232 297.503 175.746 297.051L176.086 296.685C175.599 296.232 175.119 295.774 174.648 295.312L174.298 295.669C173.823 295.203 173.356 294.731 172.897 294.255L173.257 293.908C172.797 293.431 172.346 292.949 171.903 292.462L171.533 292.799C171.083 292.304 170.641 291.804 170.208 291.299L170.587 290.973C170.157 290.472 169.736 289.965 169.323 289.453L168.934 289.767C168.515 289.248 168.106 288.725 167.705 288.196L168.104 287.894C167.704 287.366 167.312 286.832 166.93 286.294L166.523 286.583C166.137 286.04 165.761 285.492 165.394 284.939L165.811 284.662C165.446 284.112 165.09 283.557 164.743 282.996L164.318 283.259C163.968 282.693 163.627 282.121 163.296 281.544L163.729 281.295C163.4 280.722 163.081 280.145 162.771 279.562L162.329 279.797C162.017 279.21 161.715 278.618 161.421 278.02L161.87 277.8C161.58 277.209 161.299 276.612 161.028 276.01L160.572 276.216C160.299 275.609 160.035 274.997 159.781 274.38L160.244 274.189C160.118 273.883 159.994 273.576 159.873 273.267C159.752 272.958 159.633 272.649 159.517 272.339L159.049 272.514C158.815 271.889 158.592 271.261 158.38 270.63L158.854 270.47C158.643 269.845 158.443 269.216 158.254 268.586L157.775 268.729C157.583 268.092 157.402 267.452 157.232 266.81L157.715 266.682C157.546 266.044 157.387 265.403 157.239 264.76L156.752 264.872C156.602 264.223 156.463 263.572 156.335 262.919L156.825 262.823C156.698 262.176 156.581 261.527 156.474 260.875L155.981 260.956C155.874 260.301 155.776 259.643 155.69 258.983L156.185 258.918C156.099 258.263 156.023 257.606 155.957 256.947L155.46 256.997C155.394 256.336 155.338 255.674 155.291 255.009L155.79 254.975C155.745 254.319 155.709 253.66 155.683 253L155.184 253.02C155.157 252.355 155.141 251.688 155.134 251.019L155.634 251.014C155.628 250.355 155.631 249.695 155.643 249.033L155.144 249.023C155.156 248.362 155.178 247.699 155.209 247.035L155.708 247.058C155.739 246.398 155.779 245.736 155.829 245.073L155.33 245.036C155.379 244.374 155.438 243.71 155.505 243.045L156.002 243.095C156.068 242.443 156.143 241.79 156.226 241.134L155.73 241.071C155.814 240.412 155.907 239.751 156.008 239.089L156.503 239.164C156.603 238.511 156.711 237.855 156.828 237.199L156.336 237.111C156.451 236.463 156.575 235.814 156.707 235.164L157.197 235.263C157.328 234.617 157.467 233.969 157.614 233.32L157.126 233.209C157.274 232.557 157.43 231.904 157.594 231.249L158.079 231.371C158.238 230.738 158.404 230.104 158.578 229.469L158.095 229.337C158.27 228.699 158.452 228.059 158.642 227.419L159.121 227.561C159.31 226.924 159.506 226.286 159.709 225.648L159.233 225.496C159.433 224.867 159.641 224.238 159.855 223.608L160.328 223.769C160.54 223.148 160.758 222.525 160.984 221.903L160.513 221.733C160.74 221.107 160.973 220.48 161.213 219.853L161.68 220.032C161.917 219.413 162.161 218.793 162.412 218.173L161.948 217.986C162.194 217.377 162.446 216.767 162.705 216.157L163.165 216.352C163.423 215.745 163.687 215.137 163.957 214.529L163.5 214.326C163.772 213.715 164.049 213.103 164.333 212.492L164.787 212.702C165.063 212.107 165.346 211.511 165.634 210.914L165.184 210.697C165.471 210.103 165.764 209.509 166.063 208.915L166.509 209.14C166.807 208.548 167.11 207.956 167.42 207.363L166.976 207.132C167.286 206.539 167.601 205.945 167.923 205.351L168.362 205.589C168.673 205.015 168.989 204.44 169.311 203.865L168.874 203.621C169.197 203.044 169.525 202.467 169.858 201.889L170.291 202.139C170.623 201.564 170.961 200.989 171.304 200.413L170.874 200.157C171.215 199.585 171.561 199.013 171.912 198.44L172.338 198.702C172.68 198.144 173.028 197.586 173.38 197.028L172.957 196.761C173.311 196.201 173.669 195.641 174.032 195.081L174.452 195.353C174.814 194.795 175.181 194.236 175.553 193.678L175.136 193.401C175.505 192.848 175.878 192.295 176.256 191.742L176.668 192.024C177.038 191.483 177.413 190.942 177.792 190.4L177.382 190.114C177.762 189.571 178.147 189.028 178.536 188.486L178.942 188.777C179.33 188.236 179.723 187.695 180.12 187.154L179.717 186.859C180.11 186.323 180.508 185.787 180.91 185.251L181.31 185.552C181.703 185.027 182.101 184.503 182.503 183.979L182.107 183.674C182.51 183.149 182.917 182.623 183.329 182.098L183.722 182.407C184.133 181.883 184.547 181.359 184.966 180.836L184.576 180.524C184.992 180.003 185.413 179.483 185.838 178.963L186.225 179.279C186.64 178.771 187.058 178.263 187.48 177.756L187.096 177.436C187.52 176.927 187.947 176.419 188.378 175.911L188.759 176.235C189.189 175.728 189.623 175.222 190.06 174.715L189.682 174.388C190.121 173.881 190.563 173.375 191.009 172.868L191.384 173.199C191.817 172.707 192.254 172.216 192.694 171.725L192.322 171.391C192.763 170.899 193.207 170.408 193.655 169.917L194.025 170.254C194.472 169.764 194.922 169.274 195.377 168.785L195.01 168.445C195.465 167.954 195.924 167.465 196.386 166.975L196.75 167.318C197.203 166.838 197.66 166.358 198.12 165.879L197.759 165.533C198.216 165.057 198.676 164.582 199.139 164.107L199.497 164.456C199.959 163.983 200.424 163.509 200.893 163.037L200.538 162.685C201.007 162.211 201.48 161.738 201.956 161.265L202.309 161.62C202.782 161.15 203.259 160.68 203.739 160.211L203.389 159.853C203.859 159.394 204.333 158.934 204.809 158.476L205.156 158.836C205.631 158.378 206.11 157.92 206.591 157.464L206.247 157.101C206.73 156.643 207.215 156.186 207.704 155.73L208.045 156.095C208.533 155.639 209.023 155.184 209.517 154.729L209.178 154.362C209.666 153.912 210.157 153.463 210.651 153.015L210.987 153.385C211.474 152.943 211.964 152.501 212.457 152.059L212.124 151.687C212.617 151.245 213.114 150.803 213.613 150.362L213.944 150.737C214.443 150.297 214.944 149.858 215.448 149.419L215.12 149.042C215.625 148.602 216.132 148.163 216.643 147.725L216.969 148.104C217.469 147.675 217.971 147.246 218.477 146.818L218.154 146.437C218.658 146.01 219.164 145.583 219.673 145.158L219.994 145.541C220.503 145.116 221.013 144.692 221.527 144.268L221.209 143.883C221.723 143.458 222.24 143.035 222.76 142.612L223.075 143C223.594 142.577 224.115 142.156 224.639 141.735L224.326 141.345C224.839 140.933 225.355 140.521 225.873 140.11L226.184 140.502C226.701 140.091 227.221 139.682 227.743 139.273L227.435 138.879C227.958 138.47 228.483 138.061 229.011 137.653L229.316 138.048C229.843 137.641 230.372 137.234 230.904 136.829L230.601 136.431C231.133 136.025 231.667 135.619 232.204 135.215L232.505 135.614C233.03 135.218 233.558 134.823 234.087 134.428L233.789 134.027C234.319 133.632 234.852 133.238 235.387 132.844L235.684 133.247C236.218 132.854 236.754 132.461 237.293 132.07L236.999 131.665C237.539 131.273 238.08 130.882 238.624 130.492L238.916 130.898C239.459 130.508 240.005 130.119 240.552 129.731L240.263 129.323C240.801 128.941 241.34 128.561 241.882 128.181L242.169 128.591C242.71 128.212 243.253 127.833 243.799 127.456L243.514 127.045C244.06 126.667 244.608 126.29 245.158 125.913L245.441 126.326C245.99 125.95 246.542 125.575 247.095 125.201L246.815 124.787C247.369 124.412 247.926 124.038 248.484 123.665L248.762 124.081C249.311 123.714 249.862 123.348 250.414 122.983L250.139 122.566C250.691 122.202 251.245 121.838 251.801 121.476L252.074 121.894C252.629 121.532 253.186 121.171 253.745 120.81L253.474 120.39C254.034 120.029 254.596 119.669 255.16 119.31L255.428 119.731C255.991 119.373 256.556 119.015 257.123 118.658L256.856 118.235C257.418 117.881 257.981 117.528 258.546 117.177L258.81 117.601C259.371 117.252 259.933 116.904 260.497 116.557L260.235 116.131C260.8 115.783 261.367 115.437 261.935 115.091L262.195 115.518C262.763 115.173 263.332 114.828 263.904 114.485L263.646 114.056C264.218 113.712 264.792 113.369 265.368 113.027L265.623 113.457C266.196 113.117 266.77 112.777 267.346 112.439L267.092 112.008C267.662 111.673 268.233 111.34 268.806 111.007L269.057 111.439C269.63 111.107 270.204 110.775 270.779 110.445L270.531 110.011C271.107 109.68 271.685 109.35 272.265 109.021L272.512 109.456C273.091 109.128 273.672 108.8 274.254 108.473L274.009 108.037C274.593 107.71 275.177 107.384 275.764 107.059L276.006 107.496C276.584 107.176 277.164 106.856 277.745 106.537L277.505 106.099C278.085 105.781 278.667 105.464 279.251 105.147L279.489 105.587C280.072 105.271 280.657 104.956 281.243 104.642L281.007 104.202C281.594 103.887 282.182 103.574 282.772 103.262L283.006 103.704C283.596 103.392 284.186 103.081 284.779 102.771L284.547 102.328C285.137 102.019 285.729 101.711 286.322 101.405L286.552 101.849C287.138 101.546 287.727 101.243 288.316 100.942L288.089 100.497C288.679 100.195 289.271 99.8941 289.864 99.5944L290.09 100.041C290.682 99.7414 291.277 99.443 291.872 99.1457L291.649 98.6983C292.245 98.4007 292.843 98.104 293.442 97.8084L293.663 98.2568C294.262 97.9615 294.862 97.6673 295.463 97.3741L295.244 96.9246C295.84 96.6342 296.437 96.3447 297.036 96.0563L297.253 96.5067C297.849 96.2197 298.446 95.9337 299.045 95.6487L298.83 95.1972C299.429 94.9119 300.03 94.6276 300.632 94.3444L300.845 94.7968C301.446 94.5139 302.049 94.2321 302.653 93.9513L302.443 93.4979C303.047 93.2168 303.654 92.9367 304.261 92.6577L304.47 93.1121C305.076 92.8337 305.684 92.5564 306.293 92.2801L306.086 91.8248C306.689 91.5516 307.292 91.2795 307.897 91.0084L308.102 91.4647C308.706 91.1939 309.311 90.9243 309.918 90.6556L309.716 90.1984C310.323 89.9295 310.932 89.6617 311.542 89.3949L311.742 89.853C312.352 89.5866 312.962 89.3212 313.574 89.0569L313.376 88.5979C313.989 88.3333 314.603 88.0698 315.218 87.8075L315.414 88.2674C316.026 88.0064 316.639 87.7464 317.254 87.4876L317.06 87.0268C317.67 86.7699 318.281 86.5141 318.893 86.2593L319.085 86.721C319.697 86.4666 320.31 86.2132 320.924 85.961L320.734 85.4985C321.349 85.2459 321.965 84.9945 322.583 84.7443L322.77 85.2076C323.387 84.9576 324.005 84.7087 324.624 84.461L324.438 83.9968C325.058 83.7487 325.679 83.5018 326.301 83.256L326.484 83.7211C326.795 83.5983 327.106 83.4758 327.417 83.3537C327.729 83.2315 328.04 83.1097 328.351 82.9884L328.17 82.5225C328.793 82.2796 329.416 82.0382 330.039 81.7985L330.218 82.2652C330.841 82.0257 331.463 81.7879 332.085 81.5518L331.907 81.0843C332.53 80.8479 333.153 80.6131 333.775 80.38L333.951 80.8482C334.572 80.6153 335.194 80.3841 335.816 80.1545L335.642 79.6855C336.264 79.4556 336.887 79.2273 337.508 79.0007L337.68 79.4705C338.306 79.2423 338.933 79.0156 339.559 78.7907L339.39 78.3201C340.019 78.094 340.648 77.8695 341.277 77.6468L341.444 78.1181C342.073 77.8956 342.701 77.6747 343.329 77.4555L343.164 76.9835C343.792 76.7641 344.421 76.5463 345.049 76.3302L345.212 76.803C345.839 76.5872 346.467 76.373 347.094 76.1605L346.933 75.687C347.561 75.4743 348.188 75.2632 348.816 75.0538L348.974 75.528C349.608 75.3163 350.242 75.1062 350.876 74.8979L350.72 74.4229C351.355 74.2141 351.99 74.007 352.625 73.8017L352.779 74.2774C353.412 74.0723 354.046 73.8688 354.679 73.6671L354.528 73.1907C355.162 72.9888 355.795 72.7885 356.429 72.59L356.578 73.0671C357.211 72.8688 357.843 72.6722 358.475 72.4774L358.328 71.9996C358.963 71.8037 359.598 71.6096 360.232 71.4172L360.377 71.8957C361.018 71.7015 361.657 71.5091 362.297 71.3184L362.154 70.8393C362.795 70.6484 363.434 70.4592 364.074 70.2718L364.215 70.7516C364.854 70.5645 365.492 70.379 366.13 70.1953L365.992 69.7148C366.631 69.5309 367.269 69.3488 367.907 69.1684L368.043 69.6495C368.68 69.4693 369.317 69.2909 369.953 69.1142L369.82 68.6324C370.463 68.4537 371.106 68.2768 371.749 68.1017L371.88 68.5841C372.525 68.4083 373.17 68.2343 373.814 68.0621L373.685 67.5791C374.33 67.4067 374.974 67.2361 375.618 67.0672L375.745 67.5509C376.388 67.3823 377.031 67.2155 377.673 67.0504L377.549 66.5662C378.192 66.4009 378.834 66.2375 379.476 66.0758L379.598 66.5607C380.241 66.3988 380.883 66.2388 381.525 66.0806L381.405 65.5951C382.056 65.4345 382.707 65.2758 383.357 65.1189L383.474 65.6049C384.123 65.4482 384.772 65.2934 385.42 65.1404L385.305 64.6537C385.954 64.5005 386.602 64.3492 387.249 64.1996L387.362 64.6868C388.009 64.5375 388.655 64.39 389.301 64.2443L389.19 63.7566C389.837 63.6108 390.483 63.4667 391.128 63.3246L391.235 63.8129C391.888 63.6692 392.539 63.5273 393.19 63.3874L393.085 62.8985C393.74 62.7577 394.394 62.6189 395.047 62.4819L395.15 62.9712C395.802 62.8344 396.454 62.6995 397.105 62.5665L397.005 62.0766C397.657 61.9434 398.308 61.8121 398.959 61.6827L399.056 62.1731C399.706 62.0438 400.355 61.9165 401.003 61.791L400.908 61.3001C401.562 61.1736 402.215 61.0491 402.867 60.9264L402.959 61.4178C403.617 61.2939 404.275 61.1721 404.931 61.0522L404.842 60.5603C405.499 60.4402 406.156 60.3221 406.812 60.2059L406.899 60.6983C407.554 60.5822 408.208 60.4682 408.861 60.3561L408.777 59.8633C409.431 59.751 410.084 59.6407 410.737 59.5323L410.819 60.0256C411.472 59.9171 412.125 59.8105 412.777 59.7059L412.697 59.2122C413.36 59.1058 414.022 59.0014 414.684 58.899L414.76 59.3931C415.42 59.2909 416.08 59.1907 416.738 59.0924L416.664 58.5979C417.324 58.4996 417.982 58.4033 418.639 58.3089L418.71 58.8039C419.367 58.7097 420.022 58.6176 420.677 58.5274L420.609 58.0321C421.264 57.9418 421.919 57.8535 422.572 57.7673L422.637 58.263C423.303 58.1751 423.967 58.0894 424.631 58.0057L424.568 57.5096C425.233 57.4258 425.896 57.3442 426.558 57.2646L426.618 57.761C427.279 57.6815 427.939 57.6041 428.598 57.5288L428.541 57.032C429.201 56.9566 429.86 56.8832 430.518 56.812L430.572 57.3091C431.228 57.2379 431.884 57.1689 432.538 57.1019L432.487 56.6045C433.156 56.536 433.824 56.4698 434.49 56.4057L434.538 56.9034C435.204 56.8393 435.868 56.7774 436.531 56.7177L436.487 56.2197C437.151 56.1599 437.814 56.1022 438.476 56.0467L438.518 56.545C439.178 56.4896 439.838 56.4363 440.496 56.3852L440.457 55.8867C441.117 55.8356 441.775 55.7865 442.432 55.7397L442.468 56.2384C443.138 56.1906 443.807 56.1451 444.474 56.1018L444.442 55.6028C445.11 55.5595 445.777 55.5183 446.443 55.4795L446.472 55.9786C447.137 55.9398 447.8 55.9033 448.461 55.869L448.436 55.3697C449.098 55.3353 449.76 55.3032 450.42 55.2734L450.442 55.7729C451.104 55.7429 451.764 55.7153 452.423 55.6899L452.403 55.1902C453.076 55.1643 453.746 55.1407 454.416 55.1195L454.431 55.6193C455.099 55.5981 455.766 55.5792 456.43 55.5627L456.418 55.0629C457.084 55.0463 457.748 55.0321 458.411 55.0203L458.42 55.5202C459.081 55.5084 459.741 55.4989 460.4 55.4918L460.394 54.9918C461.061 54.9846 461.726 54.9798 462.39 54.9773L462.392 55.4773C463.063 55.4748 463.732 55.4748 464.399 55.4772L464.401 54.9773C465.069 54.9797 465.736 54.9846 466.401 54.9919L466.396 55.4919C467.059 55.4992 467.721 55.509 468.381 55.5212L468.39 55.0213C469.052 55.0335 469.711 55.0482 470.369 55.0653L470.356 55.5651C471.026 55.5826 471.695 55.6026 472.362 55.6252L472.379 55.1255C473.049 55.1482 473.718 55.1734 474.384 55.2013L474.363 55.7008C475.029 55.7286 475.692 55.7589 476.353 55.7918L476.378 55.2924C477.04 55.3254 477.7 55.3609 478.358 55.399L478.33 55.8982C478.993 55.9366 479.654 55.9776 480.313 56.0211L480.346 55.5222C481.018 55.5667 481.687 55.6138 482.354 55.6636L482.317 56.1622C482.983 56.2119 483.646 56.2643 484.307 56.3194L484.349 55.8211C485.011 55.8763 485.671 55.9342 486.329 55.9948L486.284 56.4927C486.94 56.5531 487.594 56.6162 488.246 56.682L488.296 56.1846C488.967 56.2524 489.636 56.323 490.303 56.3964L490.248 56.8934C490.913 56.9667 491.575 57.0429 492.235 57.1218L492.295 56.6254C492.956 56.7045 493.615 56.7865 494.271 56.8713L494.207 57.3672C494.862 57.4518 495.514 57.5392 496.163 57.6294L496.232 57.1342C496.897 57.2266 497.56 57.322 498.219 57.4203L498.145 57.9148C498.808 58.0136 499.468 58.1154 500.125 58.2201L500.204 57.7263C500.863 57.8314 501.519 57.9393 502.172 58.0503L502.088 58.5433C502.74 58.6539 503.388 58.7676 504.033 58.8842L504.122 58.3922C504.781 58.5113 505.437 58.6334 506.09 58.7587L505.996 59.2497C506.655 59.3761 507.31 59.5056 507.963 59.6382L508.062 59.1483C508.716 59.2813 509.367 59.4175 510.015 59.5568L509.91 60.0456C510.556 60.1846 511.199 60.3266 511.838 60.4718L511.949 59.9842C512.602 60.1325 513.251 60.2841 513.897 60.4389L513.781 60.9251C514.433 61.0814 515.082 61.241 515.727 61.4039L515.85 60.9192C516.497 61.0826 517.14 61.2493 517.78 61.4194L517.652 61.9027C518.29 62.0722 518.924 62.2451 519.554 62.4213L519.689 61.9397C520.336 62.1204 520.979 62.3045 521.618 62.4921L521.477 62.9719C522.12 63.1606 522.758 63.3529 523.393 63.5487L523.541 63.0709C524.178 63.2673 524.811 63.4673 525.439 63.6708L525.286 64.1465C525.912 64.3493 526.535 64.5556 527.153 64.7654L527.314 64.2919C527.953 64.5087 528.588 64.7293 529.219 64.9536L529.051 65.4247C529.681 65.6487 530.306 65.8764 530.927 66.1078L531.102 65.6393C531.725 65.8716 532.343 66.1076 532.957 66.3474L532.776 66.8132C533.393 67.0541 534.005 67.2988 534.613 67.5473L534.802 67.0845C535.426 67.3398 536.046 67.5991 536.66 67.8623L536.463 68.3219C537.075 68.584 537.682 68.8501 538.284 69.1201L538.489 68.6639C539.093 68.9351 539.693 69.2102 540.287 69.4893L540.075 69.9419C540.681 70.2262 541.281 70.5146 541.876 70.8072L542.097 70.3585C542.699 70.6548 543.296 70.9553 543.888 71.26L543.659 71.7045C544.248 72.0078 544.831 72.3152 545.409 72.6268L545.646 72.1867C546.232 72.5028 546.812 72.8231 547.386 73.1477L547.14 73.583C547.724 73.9127 548.302 74.2469 548.873 74.5855L549.128 74.1553C549.702 74.4956 550.271 74.8404 550.833 75.1896L550.569 75.6143C551.128 75.9616 551.681 76.3134 552.228 76.6694L552.501 76.2504C553.066 76.6186 553.625 76.9914 554.177 77.3689L553.895 77.7817C554.444 78.1572 554.987 78.5375 555.522 78.9223L555.814 78.5162C556.353 78.9032 556.885 79.295 557.411 79.6914L557.109 80.0905C557.642 80.4922 558.167 80.8986 558.685 81.3098L558.996 80.9182C559.521 81.3347 560.038 81.7561 560.548 82.1823L560.227 82.566C560.734 82.9895 561.234 83.4179 561.726 83.8511L562.056 83.4758C562.558 83.9176 563.052 84.3644 563.538 84.8162L563.198 85.1825C563.685 85.6353 564.165 86.0931 564.636 86.5559L564.987 86.199C565.462 86.665 565.928 87.1362 566.387 87.6123L566.027 87.9593C566.487 88.4362 566.938 88.9183 567.381 89.4054L567.751 89.0689C568.202 89.5637 568.643 90.0638 569.076 90.5691L568.697 90.8945C569.127 91.3961 569.548 91.9027 569.961 92.4146L570.35 92.1006C570.769 92.6191 571.178 93.1429 571.579 93.672L571.181 93.9739C571.581 94.502 571.972 95.0353 572.354 95.5738L572.762 95.2844C573.147 95.8273 573.523 96.3754 573.89 96.9288L573.473 97.2052C573.838 97.7553 574.194 98.3107 574.541 98.8714L574.966 98.6084C575.316 99.1749 575.657 99.7466 575.989 100.324L575.555 100.573C575.884 101.145 576.203 101.723 576.513 102.306L576.955 102.071C577.267 102.658 577.57 103.25 577.863 103.847L577.414 104.067C577.704 104.659 577.985 105.255 578.256 105.857L578.712 105.652Z" stroke="#C4B39B" stroke-dasharray="2 2"/>
<path d="M475.161 125.848C476.036 125.848 476.816 126.047 477.501 126.446C478.186 126.836 478.714 127.382 479.087 128.084C479.468 128.777 479.659 129.57 479.659 130.463C479.659 131.356 479.468 132.153 479.087 132.855C478.714 133.548 478.186 134.094 477.501 134.493C476.816 134.883 476.036 135.078 475.161 135.078C474.277 135.078 473.493 134.883 472.808 134.493C472.123 134.094 471.59 133.548 471.209 132.855C470.828 132.153 470.637 131.356 470.637 130.463C470.637 129.57 470.828 128.777 471.209 128.084C471.59 127.382 472.123 126.836 472.808 126.446C473.493 126.047 474.277 125.848 475.161 125.848ZM475.161 126.368C474.355 126.368 473.653 126.541 473.055 126.888C472.457 127.226 471.998 127.703 471.677 128.318C471.356 128.933 471.196 129.648 471.196 130.463C471.196 131.269 471.356 131.984 471.677 132.608C471.998 133.223 472.457 133.704 473.055 134.051C473.653 134.398 474.355 134.571 475.161 134.571C475.958 134.571 476.652 134.398 477.241 134.051C477.839 133.704 478.298 133.223 478.619 132.608C478.94 131.984 479.1 131.269 479.1 130.463C479.1 129.648 478.94 128.933 478.619 128.318C478.298 127.703 477.839 127.226 477.241 126.888C476.652 126.541 475.958 126.368 475.161 126.368ZM475.135 127.447C474.615 127.447 474.138 127.568 473.705 127.811C473.28 128.054 472.942 128.405 472.691 128.864C472.44 129.315 472.314 129.843 472.314 130.45C472.314 131.057 472.44 131.59 472.691 132.049C472.942 132.5 473.28 132.851 473.705 133.102C474.138 133.345 474.615 133.466 475.135 133.466C475.785 133.466 476.348 133.293 476.825 132.946C477.302 132.591 477.627 132.118 477.8 131.529H476.708C476.448 132.248 475.924 132.608 475.135 132.608C474.615 132.608 474.19 132.422 473.861 132.049C473.532 131.676 473.367 131.148 473.367 130.463C473.367 129.77 473.532 129.237 473.861 128.864C474.19 128.491 474.615 128.305 475.135 128.305C475.516 128.305 475.846 128.4 476.123 128.591C476.4 128.773 476.595 129.037 476.708 129.384H477.8C477.635 128.769 477.315 128.292 476.838 127.954C476.361 127.616 475.794 127.447 475.135 127.447Z" fill="#F0EDE6"/>
</svg>
