<svg width="20" height="20" viewBox="0 0 20 20" fill="none" xmlns="http://www.w3.org/2000/svg">
<path d="M10.0002 6.75005C8.20526 6.75005 6.75018 8.20512 6.75018 10C6.75018 11.795 8.20526 13.25 10.0002 13.25C11.7951 13.25 13.2502 11.795 13.2502 10C13.2502 8.20512 11.7951 6.75005 10.0002 6.75005Z" fill="#F0EDE6"/>
<path fill-rule="evenodd" clip-rule="evenodd" d="M4.76972 1.08151C8.21784 0.696136 11.7825 0.696136 15.2307 1.08151C17.1291 1.29369 18.6603 2.78947 18.8831 4.69452C19.2954 8.21952 19.2954 11.7806 18.8831 15.3056C18.6603 17.2106 17.1291 18.7064 15.2307 18.9186C11.7825 19.304 8.21784 19.304 4.76972 18.9186C2.87132 18.7064 1.34013 17.2106 1.11732 15.3056C0.705035 11.7806 0.705035 8.21952 1.11732 4.69452C1.34013 2.78947 2.87132 1.29369 4.76972 1.08151ZM15.0002 4.00005C14.4479 4.00005 14.0002 4.44776 14.0002 5.00005C14.0002 5.55233 14.4479 6.00005 15.0002 6.00005C15.5525 6.00005 16.0002 5.55233 16.0002 5.00005C16.0002 4.44776 15.5525 4.00005 15.0002 4.00005ZM5.25018 10C5.25018 7.37669 7.37683 5.25005 10.0002 5.25005C12.6235 5.25005 14.7502 7.37669 14.7502 10C14.7502 12.6234 12.6235 14.75 10.0002 14.75C7.37683 14.75 5.25018 12.6234 5.25018 10Z" fill="#F0EDE6"/>
</svg>
