<svg width="225" height="226" viewBox="0 0 225 226" fill="none" xmlns="http://www.w3.org/2000/svg">
<path d="M43.6962 114.023L34.3302 113.811L34.3557 112.68L39.4259 109.285L39.4128 109.863L34.5005 106.268L34.526 105.137L43.8919 105.348L43.8639 106.593L36.0568 106.417L36.205 105.98L41.0294 109.573L41.0271 109.673L36.0464 113.007L35.9169 112.615L43.724 112.791L43.6962 114.023Z" fill="#F0EDE6"/>
<path d="M66.9304 56.3412L66.2842 55.4898L70.0405 52.6389L70.6867 53.4904L66.9304 56.3412Z" fill="#F0EDE6"/>
<path d="M76.4173 53.1219L71.8804 44.9254L77.0733 42.051L77.6214 43.0412L73.5067 45.3187L74.9743 47.9702L78.704 45.9058L79.2521 46.896L75.5224 48.9604L77.4955 52.5251L76.4173 53.1219Z" fill="#F0EDE6"/>
<path d="M84.4747 48.8667L84.4209 38.915L85.7913 38.4155L92.1542 46.0675L90.9137 46.5196L89.4393 44.7148L85.6823 46.0843L85.7153 48.4145L84.4747 48.8667ZM85.661 44.8875L88.6855 43.785L85.2465 39.5644L85.5773 39.4438L85.661 44.8875Z" fill="#F0EDE6"/>
<path d="M99.1058 44.6591C98.5207 44.7688 97.9651 44.7621 97.4388 44.639C96.9109 44.5077 96.4425 44.2842 96.0336 43.9685C95.6247 43.6528 95.3021 43.2741 95.0657 42.8322L96.0352 42.2027C96.3689 42.7542 96.7842 43.1497 97.2812 43.3892C97.7848 43.6189 98.3333 43.6781 98.9266 43.5669C99.2891 43.4989 99.5955 43.3817 99.8458 43.2154C100.096 43.0491 100.276 42.849 100.386 42.6152C100.502 42.3716 100.534 42.1097 100.482 41.8296C100.409 41.4423 100.241 41.1583 99.9764 40.9775C99.7189 40.787 99.3692 40.6734 98.9274 40.6369L97.1368 40.4352C96.4307 40.3544 95.8588 40.1247 95.4211 39.7462C94.9834 39.3677 94.7104 38.89 94.6023 38.3132C94.5081 37.8106 94.5449 37.3474 94.7128 36.9236C94.8873 36.4899 95.1688 36.1259 95.5571 35.8313C95.9521 35.5269 96.4256 35.323 96.9777 35.2195C97.5297 35.116 98.0468 35.1214 98.5288 35.2357C99.0191 35.3485 99.4524 35.5445 99.8289 35.8236C100.204 36.0945 100.506 36.4303 100.734 36.8309L99.7771 37.4582C99.482 36.9761 99.112 36.6404 98.6671 36.4508C98.2206 36.2531 97.7295 36.2044 97.194 36.3048C96.8644 36.3666 96.5827 36.4791 96.3489 36.6424C96.1218 36.7959 95.9582 36.9928 95.8583 37.2333C95.7651 37.464 95.7456 37.7236 95.7996 38.012C95.863 38.3498 96.0265 38.6305 96.2901 38.854C96.5538 39.0775 96.9171 39.2183 97.3801 39.2765L99.0108 39.4442C99.7776 39.5307 100.385 39.7452 100.833 40.0877C101.281 40.4301 101.562 40.9062 101.677 41.516C101.771 42.0186 101.722 42.4883 101.531 42.925C101.349 43.3601 101.047 43.7322 100.628 44.0412C100.215 44.3404 99.7073 44.5464 99.1058 44.6591Z" fill="#F0EDE6"/>
<path d="M106.909 43.4L106.788 34.0324L108.02 34.0165L108.074 38.191L112.764 38.1304L112.71 33.9559L113.955 33.9398L114.076 43.3073L112.831 43.3234L112.779 39.262L108.089 39.3227L108.141 43.384L106.909 43.4Z" fill="#F0EDE6"/>
<path d="M123.524 44.5542C122.873 44.4357 122.283 44.2091 121.756 43.8746C121.231 43.5318 120.792 43.107 120.441 42.6001C120.099 42.0946 119.861 41.5315 119.726 40.9106C119.594 40.2815 119.59 39.6246 119.714 38.9401C119.84 38.2472 120.076 37.6339 120.42 37.1001C120.764 36.5663 121.186 36.1232 121.684 35.7709C122.191 35.42 122.746 35.1802 123.349 35.0513C123.96 34.9239 124.596 34.9203 125.255 35.0403C125.915 35.1604 126.504 35.3911 127.021 35.7323C127.548 36.0668 127.983 36.4868 128.326 36.9923C128.678 37.4909 128.921 38.0507 129.055 38.6716C129.198 39.294 129.206 39.9516 129.08 40.6444C128.955 41.329 128.716 41.9415 128.362 42.4821C128.018 43.0159 127.592 43.4583 127.085 43.8091C126.586 44.1614 126.031 44.4054 125.418 44.541C124.815 44.6699 124.184 44.6743 123.524 44.5542ZM123.729 43.4284C124.24 43.5215 124.723 43.5155 125.177 43.4106C125.632 43.2975 126.042 43.1037 126.407 42.8293C126.782 42.5482 127.092 42.2041 127.336 41.797C127.591 41.3831 127.763 40.9246 127.855 40.4215C127.947 39.9184 127.945 39.4325 127.852 38.9638C127.766 38.4967 127.597 38.0696 127.344 37.6827C127.1 37.289 126.784 36.9631 126.397 36.7051C126.011 36.4389 125.562 36.2592 125.051 36.1662C124.547 36.0746 124.068 36.0854 123.613 36.1986C123.159 36.3035 122.745 36.4965 122.37 36.7776C122.005 37.052 121.696 37.392 121.443 37.7976C121.191 38.2032 121.018 38.6576 120.927 39.1607C120.835 39.6638 120.836 40.1538 120.928 40.6307C121.021 41.0994 121.19 41.5306 121.434 41.9243C121.687 42.3112 122.007 42.6378 122.393 42.9041C122.78 43.1621 123.226 43.3368 123.729 43.4284Z" fill="#F0EDE6"/>
<path d="M132.76 46.6175L136.173 37.8932L137.134 38.2689L139.388 47.2796L138.936 47.157L141.713 40.0604L142.872 40.514L139.458 49.2383L138.498 48.8626L136.286 39.8142L136.703 39.9231L133.908 47.0665L132.76 46.6175Z" fill="#F0EDE6"/>
<path d="M148.339 53.9886L153.901 46.4502L154.811 47.1221L154.671 53.2223L154.205 52.8788L159.972 50.9298L160.883 51.6017L155.321 59.1402L154.319 58.401L158.955 52.1173L159.227 52.4899L153.513 54.3681L153.432 54.3084L153.571 48.3164L153.967 48.4366L149.33 54.7203L148.339 53.9886Z" fill="#F0EDE6"/>
<path d="M158.176 61.6918L167.301 57.7215L168.3 58.7844L163.774 67.6473L162.87 66.6852L163.948 64.6191L161.209 61.7055L159.08 62.6538L158.176 61.6918ZM162.3 61.2143L164.505 63.5599L167.03 58.7362L167.271 58.9927L162.3 61.2143Z" fill="#F0EDE6"/>
<path d="M168.403 74.3852C168.041 73.8305 167.805 73.2538 167.695 72.6551C167.592 72.0518 167.611 71.4591 167.751 70.8769C167.892 70.2946 168.144 69.7449 168.507 69.2277C168.875 68.7175 169.35 68.2724 169.933 67.8922C170.523 67.5075 171.125 67.2496 171.741 67.1186C172.356 66.9876 172.958 66.975 173.548 67.0809C174.137 67.1868 174.684 67.4109 175.187 67.7531C175.698 68.0907 176.134 68.5369 176.496 69.0916C176.848 69.6322 177.07 70.1786 177.159 70.7305C177.254 71.2895 177.246 71.815 177.137 72.3068C177.032 72.8057 176.848 73.2305 176.587 73.5813L175.529 72.9499C175.867 72.4696 176.043 71.9494 176.058 71.3892C176.073 70.8289 175.899 70.2715 175.537 69.7167C175.18 69.1691 174.732 68.7658 174.193 68.5069C173.658 68.2551 173.081 68.161 172.462 68.2245C171.843 68.2881 171.224 68.5214 170.606 68.9244C169.996 69.3229 169.536 69.7926 169.229 70.3336C168.925 70.8817 168.781 71.4511 168.796 72.0418C168.816 72.6396 169.004 73.2123 169.362 73.76C169.673 74.2375 170.057 74.6029 170.512 74.8563C170.968 75.1096 171.448 75.2319 171.952 75.223C172.457 75.2141 172.945 75.0562 173.415 74.7493L173.9 74.4333L173.766 75.1958L171.788 72.1625L172.683 71.5785L175.033 75.1806L174.337 75.634C173.79 75.9913 173.233 76.2194 172.667 76.3184C172.101 76.4173 171.552 76.4048 171.021 76.2809C170.497 76.1524 170.008 75.9255 169.556 75.6001C169.103 75.2746 168.719 74.8697 168.403 74.3852Z" fill="#F0EDE6"/>
<path d="M172.409 80.8464L182.345 80.2762L182.915 81.6189L175.603 88.3702L175.087 87.1548L176.813 85.5888L175.251 81.9079L172.925 82.0618L172.409 80.8464ZM176.445 81.8245L177.703 84.7878L181.739 81.1343L181.877 81.4584L176.445 81.8245Z" fill="#F0EDE6"/>
<path d="M176.545 91.3142L177.423 91.0942L185.772 94.2528L184.608 89.6054L185.706 89.3304L187.258 95.527L186.38 95.747L178.037 92.6127L179.299 97.6505L178.201 97.9255L176.545 91.3142Z" fill="#F0EDE6"/>
<path d="M178.797 101.95L188.09 100.769L188.245 101.992L178.952 103.173L178.797 101.95Z" fill="#F0EDE6"/>
<path d="M179.455 107.967L188.823 108.052L188.813 109.083L181.195 114.396L181.149 113.931L188.769 114L188.757 115.244L179.39 115.16L179.399 114.128L187.067 108.841L187.114 109.269L179.443 109.199L179.455 107.967Z" fill="#F0EDE6"/>
<path d="M181.678 120.664L182.732 120.844L181.938 125.493L180.885 125.313L181.678 120.664Z" fill="#F0EDE6"/>
<path d="M170.865 143.836C171.194 143.242 171.611 142.783 172.116 142.459C172.617 142.143 173.155 141.976 173.73 141.959C174.308 141.953 174.876 142.105 175.433 142.413L180.868 145.423L180.264 146.512L174.852 143.514C174.478 143.307 174.1 143.203 173.717 143.202C173.338 143.212 172.988 143.316 172.668 143.512C172.344 143.716 172.077 144.009 171.866 144.39C171.655 144.772 171.55 145.15 171.553 145.526C171.552 145.908 171.65 146.259 171.847 146.579C172.047 146.91 172.334 147.18 172.708 147.387L178.12 150.384L177.517 151.473L172.082 148.464C171.525 148.155 171.097 147.75 170.8 147.25C170.505 146.761 170.359 146.22 170.361 145.627C170.364 145.035 170.532 144.437 170.865 143.836Z" fill="#F0EDE6"/>
<path d="M160.767 157.763C161.268 157.331 161.814 157.014 162.406 156.814C163.002 156.62 163.608 156.546 164.223 156.591C164.831 156.642 165.419 156.81 165.987 157.095C166.56 157.387 167.074 157.796 167.528 158.323C167.988 158.856 168.318 159.424 168.517 160.027C168.717 160.631 168.797 161.237 168.758 161.846C168.713 162.461 168.551 163.043 168.273 163.594C167.988 164.149 167.592 164.646 167.084 165.084C166.577 165.523 166.028 165.836 165.437 166.024C164.846 166.224 164.246 166.299 163.638 166.248C163.028 166.21 162.44 166.047 161.872 165.762C161.299 165.482 160.782 165.076 160.321 164.542C159.867 164.016 159.54 163.445 159.342 162.83C159.143 162.227 159.065 161.618 159.111 161.003C159.15 160.394 159.309 159.808 159.588 159.246C159.866 158.696 160.259 158.202 160.767 157.763ZM161.514 158.63C161.121 158.969 160.822 159.349 160.619 159.768C160.421 160.193 160.315 160.634 160.299 161.09C160.282 161.559 160.356 162.016 160.519 162.462C160.682 162.919 160.93 163.342 161.264 163.729C161.598 164.116 161.977 164.42 162.4 164.642C162.818 164.869 163.256 165.005 163.717 165.051C164.176 165.108 164.628 165.067 165.072 164.927C165.522 164.794 165.943 164.558 166.337 164.218C166.724 163.884 167.016 163.504 167.214 163.079C167.417 162.66 167.527 162.216 167.544 161.748C167.56 161.291 167.489 160.837 167.332 160.386C167.175 159.935 166.929 159.515 166.595 159.128C166.261 158.741 165.88 158.434 165.45 158.206C165.027 157.985 164.585 157.845 164.126 157.788C163.666 157.742 163.211 157.786 162.761 157.919C162.317 158.059 161.901 158.296 161.514 158.63Z" fill="#F0EDE6"/>
<path d="M145.671 169.637C146.186 169.337 146.711 169.157 147.249 169.097C147.79 169.043 148.306 169.097 148.797 169.257C149.288 169.417 149.719 169.666 150.09 170.003L149.388 170.921C148.888 170.514 148.365 170.28 147.816 170.221C147.265 170.174 146.728 170.302 146.206 170.606C145.888 170.791 145.638 171.004 145.458 171.245C145.278 171.485 145.176 171.734 145.151 171.991C145.123 172.26 145.18 172.517 145.324 172.764C145.522 173.104 145.776 173.315 146.086 173.397C146.392 173.49 146.76 173.48 147.188 173.366L148.943 172.956C149.635 172.795 150.251 172.82 150.79 173.03C151.329 173.239 151.747 173.598 152.042 174.105C152.299 174.547 152.42 174.996 152.404 175.451C152.385 175.918 152.242 176.356 151.975 176.764C151.704 177.183 151.327 177.534 150.841 177.816C150.356 178.099 149.867 178.267 149.375 178.321C148.875 178.379 148.401 178.34 147.953 178.203C147.509 178.074 147.112 177.858 146.762 177.558L147.453 176.646C147.893 177.001 148.354 177.193 148.837 177.223C149.324 177.259 149.803 177.14 150.274 176.866C150.563 176.698 150.791 176.497 150.957 176.265C151.119 176.044 151.207 175.804 151.221 175.544C151.231 175.295 151.162 175.044 151.015 174.79C150.842 174.493 150.594 174.284 150.27 174.162C149.947 174.039 149.558 174.029 149.102 174.129L147.509 174.518C146.758 174.693 146.114 174.695 145.577 174.523C145.04 174.35 144.615 173.996 144.303 173.46C144.046 173.018 143.934 172.559 143.968 172.084C143.994 171.612 144.153 171.161 144.445 170.729C144.734 170.309 145.142 169.944 145.671 169.637Z" fill="#F0EDE6"/>
<path d="M139.564 173.096L139.753 183.046L138.389 183.564L131.923 175.999L133.158 175.53L134.656 177.314L138.394 175.894L138.33 173.565L139.564 173.096ZM138.432 177.091L135.423 178.234L138.918 182.408L138.589 182.533L138.432 177.091Z" fill="#F0EDE6"/>
<path d="M155.864 168.28L156.51 169.131L152.754 171.982L152.108 171.131L155.864 168.28Z" fill="#F0EDE6"/>
<path d="M123.689 179.962C124.274 179.852 124.829 179.859 125.356 179.982C125.883 180.113 126.352 180.337 126.761 180.653C127.17 180.968 127.492 181.347 127.729 181.789L126.759 182.418C126.425 181.867 126.01 181.471 125.513 181.232C125.009 181.002 124.461 180.943 123.868 181.054C123.505 181.122 123.199 181.239 122.948 181.406C122.698 181.572 122.518 181.772 122.409 182.006C122.292 182.249 122.26 182.511 122.313 182.792C122.385 183.179 122.554 183.463 122.818 183.644C123.075 183.834 123.425 183.948 123.867 183.984L125.658 184.186C126.364 184.267 126.935 184.496 127.373 184.875C127.811 185.253 128.084 185.731 128.192 186.308C128.286 186.81 128.249 187.274 128.082 187.698C127.907 188.131 127.625 188.495 127.237 188.79C126.842 189.094 126.369 189.298 125.817 189.402C125.265 189.505 124.748 189.5 124.265 189.385C123.775 189.273 123.342 189.077 122.965 188.797C122.591 188.527 122.289 188.191 122.06 187.79L123.017 187.163C123.312 187.645 123.682 187.981 124.127 188.17C124.574 188.368 125.065 188.417 125.6 188.316C125.93 188.254 126.212 188.142 126.445 187.979C126.673 187.825 126.836 187.628 126.936 187.388C127.029 187.157 127.049 186.898 126.995 186.609C126.931 186.271 126.768 185.991 126.504 185.767C126.24 185.544 125.877 185.403 125.414 185.345L123.783 185.177C123.017 185.09 122.409 184.876 121.961 184.533C121.513 184.191 121.232 183.715 121.118 183.105C121.023 182.603 121.072 182.133 121.263 181.696C121.446 181.261 121.747 180.889 122.167 180.58C122.58 180.281 123.087 180.075 123.689 179.962Z" fill="#F0EDE6"/>
<path d="M115.885 181.221L116.006 190.589L114.774 190.605L114.72 186.43L110.03 186.491L110.084 190.665L108.839 190.681L108.718 181.314L109.963 181.298L110.016 185.359L114.706 185.298L114.653 181.237L115.885 181.221Z" fill="#F0EDE6"/>
<path d="M99.271 180.067C99.9226 180.186 100.512 180.412 101.039 180.747C101.565 181.09 102.003 181.515 102.354 182.022C102.696 182.527 102.935 183.09 103.069 183.711C103.201 184.34 103.205 184.997 103.081 185.682C102.955 186.374 102.719 186.988 102.375 187.521C102.031 188.055 101.61 188.498 101.111 188.851C100.604 189.202 100.049 189.441 99.4461 189.57C98.835 189.698 98.1995 189.701 97.5397 189.581C96.8798 189.461 96.2913 189.23 95.7739 188.889C95.2469 188.555 94.812 188.135 94.4694 187.629C94.1171 187.131 93.8739 186.571 93.7397 185.95C93.5974 185.328 93.5892 184.67 93.7153 183.977C93.8399 183.293 94.0792 182.68 94.4332 182.139C94.7774 181.606 95.203 181.163 95.71 180.812C96.2087 180.46 96.7643 180.216 97.377 180.081C97.9798 179.952 98.6112 179.947 99.271 180.067ZM99.0661 181.193C98.5548 181.1 98.0723 181.106 97.6186 181.211C97.1634 181.324 96.7533 181.518 96.388 181.792C96.0131 182.073 95.7034 182.417 95.4588 182.825C95.2046 183.238 95.0317 183.697 94.9401 184.2C94.8486 184.703 94.8496 185.189 94.9433 185.658C95.0287 186.125 95.1981 186.552 95.4514 186.939C95.6951 187.333 96.0107 187.658 96.3983 187.916C96.7844 188.183 97.2332 188.362 97.7445 188.455C98.2477 188.547 98.7268 188.536 99.182 188.423C99.6356 188.318 100.05 188.125 100.425 187.844C100.79 187.57 101.099 187.23 101.352 186.824C101.605 186.418 101.777 185.964 101.868 185.461C101.96 184.958 101.96 184.468 101.867 183.991C101.774 183.522 101.605 183.091 101.361 182.697C101.108 182.31 100.788 181.984 100.402 181.718C100.015 181.46 99.5693 181.285 99.0661 181.193Z" fill="#F0EDE6"/>
<path d="M90.0351 178.005L86.6216 186.729L85.6614 186.353L83.4076 177.342L83.8592 177.465L81.0826 184.562L79.9232 184.108L83.3367 175.384L84.297 175.759L86.509 184.808L86.0925 184.699L88.8875 177.556L90.0351 178.005Z" fill="#F0EDE6"/>
<path d="M74.4565 170.633L68.8943 178.171L67.9836 177.499L68.1245 171.399L68.59 171.743L62.8231 173.692L61.9124 173.02L67.4746 165.481L68.4764 166.221L63.84 172.504L63.5679 172.132L69.2826 170.253L69.3635 170.313L69.2243 176.305L68.8285 176.185L73.4649 169.901L74.4565 170.633Z" fill="#F0EDE6"/>
<path d="M64.6187 162.929L55.4931 166.9L54.494 165.837L59.0203 156.974L59.9247 157.936L58.8466 160.002L61.5855 162.916L63.7143 161.967L64.6187 162.929ZM60.4939 163.407L58.289 161.061L55.7647 165.885L55.5235 165.628L60.4939 163.407Z" fill="#F0EDE6"/>
<path d="M54.392 150.236C54.7538 150.791 54.9898 151.368 55.1001 151.966C55.2033 152.57 55.1846 153.163 55.0439 153.745C54.9032 154.327 54.6512 154.877 54.288 155.394C53.9201 155.904 53.4448 156.349 52.862 156.729C52.2722 157.114 51.6697 157.372 51.0545 157.503C50.4393 157.634 49.837 157.647 49.2474 157.541C48.6579 157.435 48.1114 157.211 47.6079 156.869C47.0974 156.531 46.6613 156.085 46.2994 155.53C45.9468 154.989 45.7255 154.443 45.6357 153.891C45.5414 153.332 45.549 152.807 45.6585 152.315C45.7635 151.816 45.9468 151.391 46.2084 151.04L47.2659 151.672C46.9286 152.152 46.7524 152.672 46.7375 153.232C46.7226 153.793 46.8961 154.35 47.2579 154.905C47.6151 155.453 48.0633 155.856 48.6025 156.115C49.1371 156.366 49.714 156.461 50.3331 156.397C50.9523 156.334 51.5708 156.1 52.1887 155.697C52.7996 155.299 53.2589 154.829 53.5666 154.288C53.8697 153.74 54.0138 153.171 53.9988 152.58C53.9792 151.982 53.7908 151.409 53.4335 150.862C53.1221 150.384 52.7386 150.019 52.2831 149.765C51.8275 149.512 51.3475 149.39 50.8428 149.399C50.3381 149.407 49.8506 149.565 49.3801 149.872L48.8956 150.188L49.0288 149.426L51.0074 152.459L50.1122 153.043L47.7626 149.441L48.4577 148.988C49.0054 148.63 49.5623 148.402 50.1283 148.303C50.6943 148.204 51.243 148.217 51.7742 148.341C52.2984 148.469 52.7867 148.696 53.2392 149.022C53.6917 149.347 54.076 149.752 54.392 150.236Z" fill="#F0EDE6"/>
<path d="M50.3851 143.775L40.4496 144.345L39.8796 143.002L47.1911 136.251L47.7071 137.466L45.9812 139.032L47.5438 142.713L49.8692 142.559L50.3851 143.775ZM46.3497 142.797L45.0917 139.833L41.0553 143.487L40.9177 143.163L46.3497 142.797Z" fill="#F0EDE6"/>
<path d="M46.2502 133.308L45.3719 133.528L37.0229 130.369L38.1871 135.017L37.0893 135.292L35.537 129.095L36.4152 128.875L44.7582 132.009L43.4961 126.972L44.5939 126.697L46.2502 133.308Z" fill="#F0EDE6"/>
<path d="M43.9977 122.671L34.7041 123.852L34.5488 122.629L43.8424 121.448L43.9977 122.671Z" fill="#F0EDE6"/>
<path d="M41.1158 103.957L40.0622 103.777L40.856 99.1285L41.9096 99.3084L41.1158 103.957Z" fill="#F0EDE6"/>
<path d="M112 105.75C113.585 110.035 116.964 113.414 121.25 115C116.964 116.586 113.585 119.965 112 124.25C110.414 119.965 107.035 116.586 102.75 115C107.035 113.414 110.414 110.035 112 105.75Z" stroke="#F0EDE6" stroke-width="1.5"/>
</svg>
